/* XPM */
static char *_d84702fe68d4f91b093d6512d29c596m2FQSSQD7GxAqKWC[] = {
/* columns rows colors chars-per-pixel */
"64 64 182 2 ",
"   c #929695",
".  c #989C9D",
"X  c #9C9E9D",
"o  c #9D9F9E",
"O  c #9BA19F",
"+  c #9EA09F",
"@  c #9B9FA0",
"#  c #9D9EA0",
"$  c #9E9FA1",
"%  c #9CA0A1",
"&  c #9CA2A0",
"*  c #9DA3A1",
"=  c #9EA2A1",
"-  c #9DA1A2",
";  c #9FA3A2",
":  c #9EA2A3",
">  c #9FA3A4",
",  c gray63",
"<  c #A0A2A1",
"1  c #A0A0A2",
"2  c #A1A1A3",
"3  c #A2A2A2",
"4  c #A0A4A3",
"5  c #A2A4A3",
"6  c #A1A2A4",
"7  c #A2A3A5",
"8  c #A0A4A5",
"9  c #A3A5A4",
"0  c #A1A5A6",
"q  c #A3A4A6",
"w  c #A3A7A6",
"e  c #A2A6A7",
"r  c #A4A4A6",
"t  c #A4A5A7",
"y  c #A5A7A6",
"u  c #A7A7A7",
"i  c #A6A8A7",
"p  c #A3A7A8",
"a  c #A5A6A8",
"s  c #A6A7A9",
"d  c #A4A8A9",
"f  c #A7A9A8",
"g  c #A4AAA8",
"h  c #A6AAA9",
"j  c #A5A9AA",
"k  c #A7A8AA",
"l  c #A6AAAB",
"z  c #A7ABAC",
"x  c #A9A9A9",
"c  c #A8A9AB",
"v  c #A9ABAA",
"b  c gray67",
"n  c #A8ACAB",
"m  c #AAACAB",
"M  c #A9AAAC",
"N  c #AAAAAC",
"B  c #A8ACAD",
"V  c #A9ADAE",
"C  c #ABACAE",
"Z  c #ABAFAE",
"A  c #AAAEAF",
"S  c #ACAEAD",
"D  c #AAB0AE",
"F  c #ABAFB0",
"G  c #AEAEB0",
"H  c #ACB0B1",
"J  c #AFB1B0",
"K  c #AEB2B1",
"L  c #ADB1B2",
"P  c #AFB0B2",
"I  c #AFB5B3",
"U  c #AFB3B4",
"Y  c #B4B4B6",
"T  c #B4B5B7",
"R  c #B6B6B6",
"E  c #B7B7B7",
"W  c #B6BABB",
"Q  c #B7BBBC",
"!  c #BABEBF",
"~  c #BEC0BF",
"^  c #BDBEC0",
"/  c #BEBFC1",
"(  c #BFBFC1",
")  c #BFC1C0",
"_  c #BDC1C2",
"`  c #BFC0C2",
"'  c #C0C0C2",
"]  c #C3C3C5",
"[  c #C3C4C6",
"{  c gray77",
"}  c #C6C8C7",
"|  c #C3C7C8",
" . c #C6C6C8",
".. c #C7C7C9",
"X. c #C4C8C9",
"o. c #C6CCCA",
"O. c #C8C8CA",
"+. c #C9CBCA",
"@. c #CACCCB",
"#. c #CCCECD",
"$. c #CDCFCE",
"%. c #CFD1D0",
"&. c #CDD1D2",
"*. c #CFD0D2",
"=. c #CFD3D2",
"-. c #D0D0D0",
";. c #D4D5D7",
":. c #D6D8D7",
">. c #D8DAD9",
",. c #D8D9DB",
"<. c #DADCDB",
"1. c #DADBDD",
"2. c #DBDDDC",
"3. c #DBDCDE",
"4. c #DCDEDD",
"5. c #DDDDDF",
"6. c gray87",
"7. c #DEE0DF",
"8. c #DDDEE0",
"9. c #DFDFE1",
"0. c #E0E1E3",
"q. c #E1E1E3",
"w. c gray89",
"e. c #E2E4E3",
"r. c #E1E2E4",
"t. c #E3E5E4",
"y. c #E4E5E7",
"u. c #E7E7E7",
"i. c #E5E6E8",
"p. c #E6E6E8",
"a. c #E7E7E9",
"s. c #E5E9E8",
"d. c #E8E8EA",
"f. c #E8E9EB",
"g. c #E9E9EB",
"h. c #E9EAEC",
"j. c #EBECEE",
"k. c gray93",
"l. c #ECEEED",
"z. c #EEEEF0",
"x. c #EEEFF1",
"c. c #EFF1F0",
"v. c gray94",
"b. c #F0F2F1",
"n. c #F2F4F3",
"m. c #F1F2F4",
"M. c #F3F5F4",
"N. c #F1F5F6",
"B. c #F4F4F4",
"V. c #F4F4F6",
"C. c #F5F7F6",
"Z. c gray97",
"A. c #F6F8F7",
"S. c #F9F9F9",
"D. c #F9F9FB",
"F. c #FBF9FA",
"G. c #F9FBFA",
"H. c gray98",
"J. c #FBFBFB",
"K. c #FCFAFB",
"L. c #FAFCFB",
"P. c #F9FAFC",
"I. c #FAFAFC",
"U. c #FBFBFD",
"Y. c #FDFBFC",
"T. c #FBFDFC",
"R. c #FBFCFE",
"E. c gray99",
"W. c #FDFDFD",
"Q. c #FEFCFD",
"!. c #FCFEFD",
"~. c #FCFCFE",
"^. c #FCFDFF",
"/. c #FDFDFF",
"(. c #FFFDFE",
"). c #FDFFFE",
"_. c #FDFEFF",
"`. c #FEFEFE",
"'. c #FEFEFF",
"]. c #FFFEFF",
"[. c #FEFFFF",
"{. c white",
/* pixels */
"{.{.{.{.{.{.{.{.{.{.{.{.{.{.{.{.{.{.{.{.{.{.{.{.{.{.{.{.{.{.{.{.{.{.{.{.{.{.{.{.{.{.{.{.{.{.{.{.{.{.{.{.{.{.{.{.{.{.{.{.{.{.{.{.",
"{.{.{.{.{.{.{.{.{.{.{.{.{.{.{.{.{.{.{.{.{.{.{.{.{.{.{.{.{.{.{.{.{.{.{.{.{.{.{.{.{.{.{.{.{.{.{.{.{.{.{.{.{.{.{.{.{.{.{.{.{.{.{.{.",
"{.{.{.{.{.{.{.{.{.{.{.{.{.{.{.{.{.{.{.{.{.{.{.{.{.{.{.{.{.{.{.{.{.{.{.{.{.{.{.{.{.{.{.{.{.{.{.{.{.{.{.{.{.{.{.{.{.{.{.{.{.{.{.{.",
"{.{.{.{.{.{.{.{.{.{.{.{.{.{.{.{.{.{.{.{.{.{.{.{.{.{.{.{.{.{.{.{.{.{.{.{.{.{.{.{.{.{.{.{.{.{.{.{.{.{.{.{.{.{.{.{.{.{.{.{.{.{.{.{.",
"{.{.{.{.{.{.{.{.{.{.{.{.{.{.{.{.{.{.{.{.{.{.{.{.{.{.{.{.{.{.{.{.{.{.{.{.{.{.{.{.{.{.{.{.{.{.{.{.{.{.{.{.{.{.{.{.{.{.{.{.{.{.{.{.",
"{.{.{.{.{.{.{.{.{.{.{.{.{.{.{.{.{.{.{.{.{.{.{.{.{.{.{.{.{.{.{.{.{.{.{.{.{.{.{.{.{.{.{.{.{.{.{.{.{.{.{.{.{.{.{.{.{.{.{.{.{.{.{.{.",
"{.{.{.{.{.{.{.{.{.{.{.{.{.{.{.{.{.{.{.{.{.{.{.{.{.{.{.{.{.{.{.{.{.{.{.{.{.{.{.{.{.{.{.{.{.{.{.{.{.{.{.{.{.{.{.{.{.{.{.{.{.{.{.{.",
"{.{.{.{.{.{.{.{.{.{.{.{.{.{.{.{.{.{.{.{.{.{.{.{.{.{.{.{.{.{.{.{.{.{.{.{.{.{.{.{.{.{.{.{.{.{.{.{.{.{.{.{.{.{.{.{.{.{.{.{.{.{.{.{.",
"{.{.{.{.{.{.{.{.{.{.{.{.{.{.{.{.{.{.{.{.{.{.{.{.{.{.{.{.{.{.{.{.T.{.{.{.Y.Y.{.{.{.{.{.{.{.{.{.{.{.{.{.{.{.{.{.{.{.{.{.{.{.{.{.{.",
"{.{.{.{.{.{.{.{.{.{.{.{.{.{.{.{.{.{.{.{.{.{.{.{.{.{.{.{.{.{.{.{.{.{.{.Y.{.{.{.T.{.{.{.{.{.{.{.{.{.{.{.{.{.{.{.{.{.{.{.{.{.{.{.{.",
"{.{.{.{.{.{.{.{.{.{.{.{.{.{.{.{.{.{.{.{.{.{.{.{.{.{.{.{.{.{.{.{.T.{.{.{.{.{.J.{.{.{.{.{.{.{.{.{.{.{.{.{.{.{.{.{.{.{.{.{.{.{.{.{.",
"{.{.{.{.{.{.{.{.{.{.{.{.{.{.{.{.{.{.{.{.{.{.{.{.{.{.{.{.{.{.{.{.{.J.Y.{.J.J.{.J.{.{.{.{.{.{.{.{.{.{.{.{.{.{.{.{.{.{.{.{.{.{.{.{.",
"{.{.{.{.{.{.{.{.{.{.{.{.{.{.{.{.{.{.{.{.{.{.{.{.{.{.{.{.{.{.{.{.Y.{.{.{.{.{.G.{.{.{.{.{.{.{.{.{.{.{.{.{.{.{.{.{.{.{.{.{.{.{.{.{.",
"{.{.{.{.{.{.{.{.{.{.{.{.{.{.{.{.{.{.{.{.{.{.{.{.{.{.{.{.{.{.{.{.{.T.G.G.:.>.{.{.{.{.{.{.{.{.{.{.{.{.{.{.{.{.{.{.{.{.{.{.{.{.{.{.",
"{.{.{.{.{.{.{.{.{.{.{.{.{.{.{.{.{.{.{.{.{.{.{.{.{.{.{.{.{.{.{.{.{.J.b.K   #.{.T.{.{.{.{.{.{.{.{.{.{.{.{.{.{.{.{.{.{.{.{.{.{.{.{.",
"{.{.{.{.{.{.{.{.{.{.{.{.{.{.{.{.{.{.{.{.{.{.{.{.{.{.{.{.{.{.{.{.{.N.l i e =.{.{.{.{.{.{.{.{.{.{.{.{.{.{.{.{.{.{.{.{.{.{.{.{.{.{.",
"{.{.{.{.{.{.{.{.{.{.{.{.{.{.{.{.{.{.{.{.{.{.{.{.{.{.{.{.{.{.{.{.{._ , b k u.Y.{.{.{.{.{.E.{.{.E.{.{.{.{.{.{.{.{.{.{.{.{.{.{.{.{.",
"{.{.{.{.{.{.{.{.{.{.{.{.{.{.{.{.{.{.{.{.{.{.{.{.{.Z.{.{.J.J.{.J.s.5 n i b J.Y.{.{.{.E.J.{.{.{.{.{.{.{.{.{.{.{.{.{.{.{.{.{.{.{.{.",
"{.{.{.{.{.{.{.{.{.{.{.{.{.{.{.{.{.{.{.{.{.{.{.{.{.{.{.{.{.{.T.{.o.O D = -.{.{.J.J.{.{.J.{.E.{.{.{.{.{.{.{.{.{.{.{.{.{.{.{.{.{.{.",
"{.{.{.{.{.{.{.{.{.{.{.{.{.{.{.{.{.{.{.{.{.{.{.{.J.{.{.{.{.{.{.Y.K i l D B.{.K.{.{.{.J.{.{.{.{.{.{.{.{.{.{.{.{.{.{.{.{.{.{.{.{.{.",
"{.{.{.{.{.{.{.{.{.{.{.{.{.{.{.{.{.{.{.{.{.{.{.{.{.{.{.{.{.{.{.B.h ; i l.{.{.{.{.J.J.{.{.{.{.{.J.{.{.{.{.{.{.{.{.{.{.{.{.{.{.{.{.",
"{.{.{.{.{.{.{.{.{.{.{.{.{.{.{.{.{.{.{.{.{.{.{.{.G.{.T.{.G.{.{.N.E { A.T.{.{.J.Y.{.E.{.{.{.J.J.{.{.{.{.{.{.{.{.{.{.{.{.{.{.{.{.{.",
"{.{.{.{.{.{.{.{.{.{.{.{.{.{.{.{.{.{.{.{.{.{.{.{.{.b.<.$.:.c.{.{.E.{.{.e.@.} %.c.J.{.{.{.{.{.{.{.{.{.{.{.{.{.{.{.{.{.{.{.{.{.{.{.",
"{.{.{.{.{.{.{.{.{.{.{.{.{.{.{.{.{.{.{.{.{.{.{.{.2.n o 5 + n $.N.K.6.D 5 w ; = = $.{.{.E.{.J.{.{.{.{.{.{.{.{.{.{.{.{.{.{.{.{.{.{.",
"{.{.{.{.{.{.{.{.{.{.{.{.{.{.{.{.{.J.{.{.{.U.{.&.- z z z F z - z S = > B H z z z X +.T.{.{.{.{.{.{.{.{.{.{.{.{.{.{.{.{.{.{.{.{.{.",
"{.{.{.{.{.{.{.{.{.{.{.{.{.{.{.{.J.{.{.{.J.{.,.@ z z d p z z d z z l j z z B d z S o 4.{.G.T.{.{.{.{.{.{.{.{.{.{.{.{.{.{.{.{.{.{.",
"{.{.{.{.{.{.{.{.{.{.{.{.{.{.{.{.{.{.{.{.{.U.Y e F z p p z z z z l B z z j V d B e i t.T.{.{.{.E.{.{.{.{.{.{.{.{.{.{.{.{.{.{.{.{.",
"{.{.{.{.{.{.{.{.{.{.{.{.{.{.{.{.{.{.{.K.Y.9.$ l z p z z d z z d e p l S z z z z = 7.{.{.{.{.{.{.{.{.{.{.{.{.{.{.{.{.{.{.{.{.{.{.",
"{.{.{.{.{.{.{.{.{.{.{.{.{.{.{.{.{.{.{.{.U.] s z p p F F p d z z d d d B z d V > _ T.{.{.{.{.{.{.{.{.{.{.{.{.{.{.{.{.{.{.{.{.{.{.",
"{.{.{.{.{.{.{.{.{.{.{.{.{.{.{.{.{.Y.{.{.D.N s l z d z z p z z z z z j B z > B - t.T.T.{.Y.{.{.{.{.{.{.{.{.{.{.{.{.{.{.{.{.{.{.{.",
"{.{.{.{.{.{.{.{.{.{.{.{.{.{.{.{.J.{.{.Y.z.r k l F z p p p d z B B B B d z d z F A.{.{.{.{.{.U.G.{.{.{.{.{.{.{.{.{.{.{.{.{.{.{.{.",
"{.{.{.{.{.{.{.{.{.{.{.{.{.{.{.{.{.{.{.{.9.1 N z z z z p z z z z z z j d B B > ^ {.T.T.J.{.{.{.{.{.{.{.{.{.{.{.{.{.{.{.{.{.{.{.{.",
"{.{.{.{.{.{.{.{.{.{.{.{.{.{.{.{.{.{.U.{.8.- F p j z j z j z j z z z B B j z > | {.{.J.{.{.J.{.{.{.{.{.{.{.{.{.{.{.{.{.{.{.{.{.{.",
"{.{.{.{.{.{.{.{.{.{.{.{.{.{.{.{.Y.{.{.{.8.- V z z j z j z j z j j d z B z j - | {.{.{.{.J.{.{.J.{.{.{.{.{.{.{.{.{.{.{.{.{.{.{.{.",
"{.{.{.{.{.{.{.{.{.{.{.{.{.{.{.{.{.{.{.{.,.- z z j z j z j z j z j d z j z j > _ {.{.{.{.{.{.{.J.{.{.{.{.{.{.{.{.{.{.{.{.{.{.{.{.",
"{.{.{.{.{.{.{.{.{.{.{.{.{.{.{.{.{.{.T.{.0.- z z z j z j z j z j d j j B j B d U B.{.{.{.{.{.{.{.{.{.{.{.{.{.{.{.{.{.{.{.{.{.{.{.",
"{.{.{.{.{.{.{.{.{.{.{.{.{.{.{.{.Y.{.Y.{.f.- F j j z j z j z j z j j j B j B B > b.J.{.{.{.{.{.J.{.{.{.{.{.{.{.{.{.{.{.{.{.{.{.{.",
"{.{.{.{.{.{.{.{.{.{.{.{.{.{.{.{.{.{.{.{.V.p z z z j z j z j z j z z j B j B F % -.{.Y.{.{.{.{.{.{.{.{.{.{.{.{.{.{.{.{.{.{.{.{.{.",
"{.{.{.{.{.{.{.{.{.{.{.{.{.{.{.{.{.{.{.{.P.L d z j z j z j z j z j j z B j B B > b k.{.{.{.J.{.{.{.{.{.{.{.{.{.{.{.{.{.{.{.{.{.{.",
"{.{.{.{.{.{.{.{.{.{.{.{.{.{.{.{.Y.{.{.{.T.W p z z j z j z j z z B d j d B z j L , E B.{.J.J.{.{.{.{.{.{.{.{.{.{.{.{.{.{.{.{.{.{.",
"{.{.{.{.{.{.{.{.{.{.{.{.{.{.{.{.{.{.{.{.{.;.6 N z z z B l l p j j j z j z j z j V p Y V.{.{.U.{.{.{.{.{.{.{.{.{.{.{.{.{.{.{.{.{.",
"{.{.{.{.{.{.{.{.{.{.{.{.{.{.{.{.{.{.J.{.T.j.6 l z z p z F p j B j z j z j z j z z F 1 i.{.{.Y.{.{.{.{.{.{.{.{.{.{.{.{.{.{.{.{.{.",
"{.{.{.{.{.{.{.{.{.{.{.{.{.{.{.{.{.{.{.{.T.U.G s e z z z S p j p z j z j z j z j z q G U.{.{.{.D.{.{.{.{.{.{.{.{.{.{.{.{.{.{.{.{.",
"{.{.{.{.{.{.{.{.{.{.{.{.{.{.{.{.U.{.{.{.{.{.*.6 d l F B p j j p j z j z j z j z F $ ..U.K.{.Y.{.{.{.{.{.{.{.{.{.{.{.{.{.{.{.{.{.",
"{.{.{.{.{.{.{.{.{.{.{.{.{.{.{.{.{.{.{.{.T.T.z.p z z z z l z z z z j z j z j z j z 6 i.{.{.{.Y.{.{.{.{.{.{.{.{.{.{.{.{.{.{.{.{.{.",
"{.{.{.{.{.{.{.{.{.{.{.{.{.{.{.{.{.{.{.{.U.{.{./ . F p p l z z z j z j z j z j z - ^ {.{.Y.{.{.{.{.{.{.{.{.{.{.{.{.{.{.{.{.{.{.{.",
"{.{.{.{.{.{.{.{.{.{.{.{.{.{.{.{.T.{.{.{.T.{.{.y.p z z p p z z d z j z j z j z j - i.{.U.{.{.J.{.{.{.{.{.{.{.{.{.{.{.{.{.{.{.{.{.",
"{.{.{.{.{.{.{.{.{.{.{.{.{.{.{.{.{.{.{.T.{.T.{.{.X.- z z l F z F j z j z j z j z ! T.{.{.{.{.Y.{.{.{.{.{.{.{.{.{.{.{.{.{.{.{.{.{.",
"{.{.{.{.{.{.{.{.{.{.{.{.{.{.{.{.{.{.{.{.{.{.{.{.c.z z B F z 6 p - % p z z S z 6 B.J.{.{.{.{.{.{.{.{.{.{.{.{.{.{.{.{.{.{.{.{.{.{.",
"{.{.{.{.{.{.{.{.{.{.{.{.{.{.{.{.{.{.{.{.{.{.{.{.U.y.$ 6 r 6 ^ r.j.r.] 6 p $ $ 1.J.J.{.{.{.{.{.{.{.{.{.{.{.{.{.{.{.{.{.{.{.{.{.{.",
"{.{.{.{.{.{.{.{.{.{.{.{.{.{.{.{.{.{.{.{.{.{.{.{.{.U.f.^ ^ i.{.U.{.{.{.i.....9.{.{.{.{.{.{.J.{.{.{.{.{.{.{.{.{.{.{.{.{.{.{.{.{.{.",
"{.{.{.{.{.{.{.{.{.{.{.{.{.{.{.{.{.{.{.{.{.{.{.{.{.{.{.U.{.{.{.D.U.{.{.{.{.Y.{.{.{.{.{.{.{.{.J.{.{.{.{.{.{.{.{.{.{.{.{.{.{.{.{.{.",
"{.{.{.{.{.{.{.{.{.{.{.{.{.{.{.{.{.{.{.{.{.{.{.{.{.{.J.{.Y.{.{.{.{.J.{.Y.Y.{.D.{.{.{.J.{.{.{.{.{.{.{.{.{.{.{.{.{.{.{.{.{.{.{.{.{.",
"{.{.{.{.{.{.{.{.{.{.{.{.{.{.{.{.{.{.{.{.{.{.{.{.Y.{.{.{.{.{.{.{.{.{.{.Y.{.{.J.{.{.{.J.{.{.{.{.{.{.{.{.{.{.{.{.{.{.{.{.{.{.{.{.{.",
"{.{.{.{.{.{.{.{.{.{.{.{.{.{.{.{.{.{.{.{.{.{.{.{.{.{.U.{.{.{.Y.{.J.{.J.{.{.J.{.J.{.{.{.J.{.{.{.{.{.{.{.{.{.{.{.{.{.{.{.{.{.{.{.{.",
"{.{.{.{.{.{.{.{.{.{.{.{.{.{.{.{.{.{.{.{.{.{.{.{.{.{.{.{.{.{.{.Y.{.{.{.{.{.{.{.{.{.{.{.{.{.{.{.{.{.{.{.{.{.{.{.{.{.{.{.{.{.{.{.{.",
"{.{.{.{.{.{.{.{.{.{.{.{.{.{.{.{.{.{.{.{.{.{.{.{.{.{.{.{.{.{.{.{.{.{.{.{.{.{.{.{.{.{.{.{.{.{.{.{.{.{.{.{.{.{.{.{.{.{.{.{.{.{.{.{.",
"{.{.{.{.{.{.{.{.{.{.{.{.{.{.{.{.{.{.{.{.{.{.{.{.{.{.{.{.{.{.{.{.{.{.{.{.{.{.{.{.{.{.{.{.{.{.{.{.{.{.{.{.{.{.{.{.{.{.{.{.{.{.{.{.",
"{.{.{.{.{.{.{.{.{.{.{.{.{.{.{.{.{.{.{.{.{.{.{.{.{.{.{.{.{.{.{.{.{.{.{.{.{.{.{.{.{.{.{.{.{.{.{.{.{.{.{.{.{.{.{.{.{.{.{.{.{.{.{.{.",
"{.{.{.{.{.{.{.{.{.{.{.{.{.{.{.{.{.{.{.{.{.{.{.{.{.{.{.{.{.{.{.{.{.{.{.{.{.{.{.{.{.{.{.{.{.{.{.{.{.{.{.{.{.{.{.{.{.{.{.{.{.{.{.{.",
"{.{.{.{.{.{.{.{.{.{.{.{.{.{.{.{.{.{.{.{.{.{.{.{.{.{.{.{.{.{.{.{.{.{.{.{.{.{.{.{.{.{.{.{.{.{.{.{.{.{.{.{.{.{.{.{.{.{.{.{.{.{.{.{.",
"{.{.{.{.{.{.{.{.{.{.{.{.{.{.{.{.{.{.{.{.{.{.{.{.{.{.{.{.{.{.{.{.{.{.{.{.{.{.{.{.{.{.{.{.{.{.{.{.{.{.{.{.{.{.{.{.{.{.{.{.{.{.{.{.",
"{.{.{.{.{.{.{.{.{.{.{.{.{.{.{.{.{.{.{.{.{.{.{.{.{.{.{.{.{.{.{.{.{.{.{.{.{.{.{.{.{.{.{.{.{.{.{.{.{.{.{.{.{.{.{.{.{.{.{.{.{.{.{.{.",
"{.{.{.{.{.{.{.{.{.{.{.{.{.{.{.{.{.{.{.{.{.{.{.{.{.{.{.{.{.{.{.{.{.{.{.{.{.{.{.{.{.{.{.{.{.{.{.{.{.{.{.{.{.{.{.{.{.{.{.{.{.{.{.{."
};
