/* XPM */
static char *eefcb653bf8642c3ce5490ac869c3d5fXjY2xYqrRSkGzHrI[] = {
/* columns rows colors chars-per-pixel */
"64 64 213 2 ",
"   c #00010D",
".  c #000313",
"X  c #010A16",
"o  c #00031A",
"O  c #020B1B",
"+  c #0B0F1B",
"@  c #03111D",
"#  c #0B121E",
"$  c #000621",
"%  c #010E24",
"&  c #020E28",
"*  c #051324",
"=  c #0B1524",
"-  c #0E1925",
";  c #05152B",
":  c #09162B",
">  c #0B1B2D",
",  c #051A2D",
"<  c #111622",
"1  c #101926",
"2  c #121D2D",
"3  c #191F2F",
"4  c #0B1630",
"5  c #0D1D33",
"6  c #091B35",
"7  c #111E33",
"8  c #111F39",
"9  c #0E202E",
"0  c #13222F",
"q  c #1C202C",
"w  c #0F2134",
"e  c #0E223A",
"r  c #132335",
"t  c #1A2535",
"y  c #1C2936",
"u  c #15253C",
"i  c #19273B",
"p  c #16293D",
"a  c #19293E",
"s  c #212733",
"d  c #232D3C",
"f  c #272E3B",
"g  c #24323E",
"h  c #2B323E",
"j  c #162740",
"k  c #192741",
"l  c #162B41",
"z  c #1B2B42",
"x  c #1D2F48",
"c  c #1E3045",
"v  c #1E3349",
"b  c #212E43",
"n  c #232D48",
"m  c #223145",
"M  c #2B3544",
"N  c #2D3946",
"B  c #23334A",
"V  c #2A364B",
"C  c #26384C",
"Z  c #2B3A4C",
"A  c #363A44",
"S  c #323D4C",
"D  c #383C45",
"F  c #293650",
"G  c #2C3C52",
"H  c #253650",
"J  c #323E53",
"K  c #313F59",
"L  c #35404E",
"P  c #2F4156",
"I  c #344253",
"U  c #3B4554",
"Y  c #3B4854",
"T  c #34445B",
"R  c #3C4A5C",
"E  c #38475A",
"W  c #3B4C61",
"Q  c #434D5D",
"!  c #494D5A",
"~  c #404652",
"^  c #46505E",
"/  c #4D535E",
"(  c #51555E",
")  c #414E61",
"_  c #455263",
"`  c #4E5B67",
"'  c #45546B",
"]  c #4A556B",
"[  c #4D5A6B",
"{  c #495263",
"}  c #515C6C",
"|  c #565966",
" . c #4E5B73",
".. c #555F7A",
"X. c #5B636B",
"o. c #5B6572",
"O. c #5B6A7C",
"+. c #566478",
"@. c #656974",
"#. c #646E7C",
"$. c #686F7F",
"%. c #6B727D",
"&. c #68727A",
"*. c #71767F",
"=. c #767B7E",
"-. c #63686C",
";. c #5D6D82",
":. c #586680",
">. c #626E85",
",. c #647285",
"<. c #6B7583",
"1. c #6E7A86",
"2. c #66718C",
"3. c #68738D",
"4. c #6C7A8C",
"5. c #737A83",
"6. c #717C8E",
"7. c #767985",
"8. c #697791",
"9. c #6D7C91",
"0. c #717D93",
"q. c #76828E",
"w. c #7C828D",
"e. c #7D8594",
"r. c #7D8A9A",
"t. c #758495",
"y. c #7D8DA3",
"u. c #838A8E",
"i. c #80848D",
"p. c #828692",
"a. c #848C95",
"s. c #838D9C",
"d. c #8B8E9A",
"f. c #8C929D",
"g. c #87909F",
"h. c #93969F",
"j. c #8490A2",
"k. c #8C95A3",
"l. c #8D9AAA",
"z. c #8B98A5",
"x. c #9196A3",
"c. c #949AA5",
"v. c #989CA6",
"b. c #929BAB",
"n. c #9A9FAA",
"m. c #99A1A5",
"M. c #94A1AC",
"N. c #9CA3AC",
"B. c #96A2B2",
"V. c #9BA5B3",
"C. c #9BA9B4",
"Z. c #9CA7B8",
"A. c #9DA9BA",
"S. c #A0A3AC",
"D. c #A3A8AC",
"F. c #A2A7B3",
"G. c #A4AAB5",
"H. c #A4ADB9",
"J. c #AAAEBA",
"K. c #A9ADB5",
"L. c #ACB2B5",
"P. c #A3B1BA",
"I. c #ACB3BD",
"U. c #AEB8BA",
"Y. c #B3B7BE",
"T. c #A6AFC0",
"R. c #A6B3C1",
"E. c #AAB5C3",
"W. c #ADBAC4",
"Q. c #ABB8CC",
"!. c #B4BAC4",
"~. c #B9BDC5",
"^. c #B4BDCA",
"/. c #BABEC9",
"(. c #B3B7C2",
"). c #B6C1CD",
"_. c #BBC1CC",
"`. c #BCC3D4",
"'. c #BDC7D9",
"]. c #BBC8D5",
"[. c #C2C7CD",
"{. c #C3C7D4",
"}. c #C5CAD5",
"|. c #C8CCD6",
" X c #C4CDDB",
".X c #CACDDB",
"XX c #CDD2DC",
"oX c #C6D1DA",
"OX c #D0D4DF",
"+X c #C2CFE2",
"@X c #CCD7E7",
"#X c #D4DAE4",
"$X c #D9DDE5",
"%X c #D3DDE9",
"&X c #D9DEE9",
"*X c #D2D6E1",
"=X c #D3E1ED",
"-X c #DCE1EC",
";X c #DCE3F3",
":X c #DDEAFB",
">X c #DAE7F4",
",X c #E2E6EE",
"<X c #E4E9EC",
"1X c #E2E6F2",
"2X c #E4EBF4",
"3X c #E4EEFD",
"4X c #EBEFF7",
"5X c #E4F3FF",
"6X c #ECF2FD",
"7X c #EFF3F6",
"8X c #F2F5FE",
"9X c #F4FBFF",
"0X c #FAFFFF",
/* pixels */
"a z a u l b x u r u a a k a u u x l l l j l l x l l l l p p a p v l j k z j u z u u a c c a a u a a a p k a p k x z u u u u z x ",
"j z u u k b x u u k z x x z z k l l l l j l l l l j j j r p y p C z j x x j z B u p a z z a a p u u u p u a u u z k a a a k k z ",
"k z k u a x z u u u u k z k p p l l l l l l l l e p j e r p r r x u u j u u u k a z a i a a g z p u u p p u u u a u k a x k a a ",
"a z u u k b x u u u u k a u u u l l l x l l l j p p p e y r p p z u 8 u u 5 u k c z u u u a a c k z k k k k k a u a x x x z u u ",
"k k u u k v b u a z x m v b x k j j l x c l p p z z a a d a y a B v z m x z z C z a a r u a z b x z z x z b z b u a z x z z a u ",
"a z p u k b z u a k k z x z z a j l l l l l p u a c c a g a a a C c z m b k c m a a a u i a a b b z z x z x x x u a k k z z a a ",
"l z k u l b x u u u a k k u u u l l p p p l a z a a d p p a y p b i t i i r r m i i a a z z k k p u u u a u a u z k k a u a k k ",
"a k a u a x x u a k z v m v z z v l p p p p a x p p u y y r y p m y a a a u i m u a a b b z i i u u u 8 u 8 r 8 v z u u u a z x ",
"u l u r u x z 8 v x k a l k m m u w e v w u C r * m g r 7 M r y d y r m d 0 * M u i G 7 4 n n i k p k p a k l k a k k z a k z a ",
"u k u u u n z u a u u u u u u j p u W , v C p g m u g > N y a a L r S M = a a M z i i b F k k n z z a z z k a a a k p z k p l k ",
"k z k p k B x u u u p k u a u u u w , C , . % % O m : m * * * O m y   X > O > a 7 4 o % $ 7 F 8 a k p k p k a z k k a k z p a k ",
"z v k a z B m u a k x b m v k k m v Z c b O.O.O._ m M Y _ _ X.1.Y g q.` Y +.M N M ) 2.>.8.n n n a z z k a z k p z a z p k k a z ",
"z b k k z C m a a k v m m x k a 5 v c * 4.+.R _ <.` = [ R r x.'.^ Y ].m.@ Y O.r J >.] ] ..2.8 8 k z p k p k z z p z k p a k z p ",
"a z k u k m x u u u u k l j u u r m * ' 4.O . O m r.Z R X S M.<.m.P.` M.`   X.` 0.N o & $ 0. .4 a k a z z k p k k a k z z p z k ",
"p k p u p x k u k p u u u u a a c w p ,.c u i Z O [ z.X . E.s.. ).P.  q.P.    t.<.. F V n n 2.& a z l a z a z k z p a k l a p k ",
"u j u r p z k u m x k a u k x n l p * t.[ - Z a - q.e.M   g.w.  P.U.X f.s.@ ^ r.7 V V 4 $ ] 2.$ k a k k p k a p z k z a k k a z ",
"m z u u a z m x a u u u a u u j j 8 6 G t.: . # h %.+ X..   n.k.&.1.C.N.O X <._ o i 4 k 4 8.K 8 B z u u a x b x u u k k a a u u ",
"x k u u k x z a z z x z z z z x j 8 z v +.,.%.o.I.D.v.J.*.( d..Xm.a.%XI.1.s.V.6.0.O.n o ' :.$ z x a u u a x z k a z z x b x k k ",
"k a u k z x z a z z z z z z z z j l H l r o.g x.F.! @.i./.  F.p./ o.q.I.O e.6.Y U 0.2.& 8.K x 8 k k u k x x k u a a z z z x z a ",
"p u u x b x a u u p u p a u u u e l v H 5 2 d H.f < <   h.d.x.O - - X b.e.%.. i O 7 ;.>.' 4 B k p u p z b v a u u u a k a u u u ",
"l u u k n m k u u u u u u p u u H e u C Z X n.x.  s h h   #X#.O s g X ^ ).O z n b . 9.j.$ K x 8 p u a k m v a u 8 u u a a u u u ",
"k u u u x z a u z k z k k k z a v e z m r r >.b.  h f X $.{.k.. S N   b.^.U = M n . >.8.G 8 j x k u u u z x k u a a z x x k a u ",
"z a u u k z k p p k z a z k k z 8 j B z > U . x.e.. < . Z.M Z.} * . { R.. j.O b o ' 0.W ;.; C 5 x u u u k z z a u k x z z k k u ",
"x k r u p z z k u u u u u u u u j j k 5 S J . U {.^.b.'.b.O 2.R.Z.A.'.l.,.l.j.4.8.Q.9.>.y.E & P x a r 8 u z z k 8 u u u p u u u ",
"a x k a x B m l u a k x x z k a j l B v b Q . j.s.M <.T.[ V O M { [ Q b ] i j.W ;.,.c E C T E p v z k k x m x k u k z x x z k u ",
"a k k u k m n u z x x m m v x z j e m R V . { x.M . b.6.I W u a V V b i 1 7 T j.t.c , , c z G e z z a u z c k p z z m B m b x x ",
"u a p u a b z u r u a k u k u u p C k C B O j.s.O >.B.. r  .z e G n i b : z & y.O.O r p C v C p k a u u a z a u u u u k k u u u ",
"u u u 5 u x z 8 5 8 u u u u u u v k u I J O Q J.. F.O.; ' ' 8 x F K i 8 b a 6 E W w p p 5 P B a k u u u a k u u u r u u u u r 8 ",
"u u u 5 u x z u u k k z x z k a z u i m I a 7 j.^.s.. m  .B j j k K F u B z J B C P a a p W v w a u u u k z p u p a k x x z a p ",
"p k u u a b x u u p k z z k a a k u z 2 m U N N Z.>.] O.T 6 v j k k K G B G B B e P C P T C p w z p u u k z k u u a k z z k a u ",
"k z a u k m m j u u u z k a u u u 5 z C d 7 m g o i E r 6 p x 6 n 8 z F z n ; z p v p 9 p 9 c c z z u k z b z u u u l k k p u u ",
"k x z p x B m j k z m m B v x z r k r z a S y 7 b M z u k z e l K K u k j 5 8 W v p p p e v Z u c z a a z m x k z x m m B m z k ",
"p l p u z B m u k 8 u V J k z C a Z m a 7 C C m 8 K n k n j 4 H W 6 a z u p B b B z C z i G C > g r 0 m m > 5 M j z z c z p p u ",
"e p e w u z k 8 m 8 z b u B 8 o * > m d r * a > b 5 z u j 8 k 8 j G r 7 2 a a Z O * . a a y z y * 0 g 0 B z x u 8 u u p p p r w ",
"p l l u p v v u u u u u b B ; 0.4.2 S M M d h h f d M i V b V d V s 7 M I f . - o.b.L 2 N M d d L N g r m i u z j k z k g p p p ",
"l v z l z C B k x m u k n u o 6X}.    X X <       f   . . 3 + O . + + .   # 7.f.s |.X.      s X     * 9 M a * 8 l z x x c c p p ",
"p p p e p v z u x u a k u k o :X~.-.Y.U.u.X.L.[./.  i.|.I.A /.| c.S.&.}.K.A 2X9X*.S.D ( |.~.  f.).P.l.@ w a x x e p p p p p p p ",
"p l l p z B m u u 8 u u m C o 3X).L.7XXX<X=.0XD.8X*.$X[.8XU.4XS.4XL.~.[.,X~.XX,X7.0X@.4X|.7X|.(.2XoX>XX m a b 6 p c p c p p p r ",
"c c v z v H B x n b z a T z o 9Xm.L.OXm.<X&.0X=.0Xa.*X-.XXK.F.%XOX*.H.}.0Xn.OX$XA 0X%.2X5.~.$XI.].C.5XX W Z m C l v C v v g p p ",
"l z p u z m m u x ; z B F n & 3X_.U.7Xm.2Xe.6Xa.8X*.9XN.,X).1.9X*X# 0Xx.-X!.}.&XQ 0X%.2XP.oX).W.=XW.5XX a m > C u l p p p p p p ",
"p p p c v c z u x u z k u b 5 +XD.z.].z.=Xq.=X&.:XX.W.>X=X` L >X`.. ].@X>XV.r.:Xl.%XQ B.5X@XO.C.W.C.=XX m u u b j l l a u p u p ",
"l e e p c c p u 5 j b u k F = b y 9 g g - 9 g 0 0 t * W * * i , m t % I X m . P z r m O L C * m a @ t * Z u 4 u j k p a a p p p ",
"l e e e p k p u j u 8 5 u x V 8 p 9 g p 9 v g 9 5 a a . P C 5 r c w m w i 9 m r r r r p O a u i t g a m r a v r k j j l p p y p ",
"c p r e p a k l z 5 5 M x 7 b a 0 y   * 0 p p p m B b k C w v a C * > c m u 7 C m C a u C 9 C 2 g y g 0 r m k z z z k l p p p p ",
"v l u u p z v z z b x b V J 8 7 m O b.6Xr.- I @ o d n 3 o V k M .  XA.. a g s i 9 0 d = d r M m 0 0 g 0 N C a 5 l l p l p p p p ",
"v z p a x v b x z x x 8 n K u V N @  X6X>XX @ L ] $ 2 2 } . 1 4 Y 5XF.O } ~ . ~ q Y t ^ = N J < L g r y m C G u z l c p g p p p ",
"l l p z z v z a u 5 b k b 5 : d . | 8X&X$Xq X.-X1X`.! XX X;X. .X&X8Xn.7.}.&Xf.G.&X$X.XXX.Xn.OX%.>XL 9 C I u 5 e z z p c p p p p ",
"p p u a x x u u u 8 B u x 5 C m   h.7X7.0X| oX2X7.{.( `..X8Xp.8Xd.6Xv.&X$X$X&X~.,XN.1Xc.0XS.$XI.%XX m 0 r k u k l z c p c p g p ",
"u p u 5 u x z r x z u u u k x b   /.8X&X0Xv./.XX. @.i.1XI.6Xi.6X@.&Xm.-X#X~.N.Y.OXx.2Xf.,X! ;X2XP.X E w p z w u m x k p k k v m ",
"u p u u j n x u u a u u u u u i - 0X/.f OX6Xc.4X|.XXd.9XK.6X7.8X.X0XK.oX&X[._.).2Xc.1Xa.0X  {.0XO.* B u n x u k k u u u u u a u ",
"a z k u z B m u u u u k u a u r S G.@.  7.H.~ P.|.#.< (.K.H.L d.J.F.%.f /.#Xh d.a.*.c.&.K.  ^.5X* u 6 5 m j r u u u a a k a u u ",
"k x k p z B B u u k z b b z a i y   0 Y   X 1 1   O g   @   -     # . 1 .   y X - # X   . 1 oXXX. C u z J x z v l k x m b x z u ",
"z x k a x B m a u a z x x x k u 9 Y N M g g y p L L d Y y M g M I N y m g m U N m y S S M g #.Z 6 B k x G z z k a k x m v x k a ",
"a a u u k m v u u u u u a u u r t c m > - C m 9 t 9 g r r > g a m g r 0 > g 2 m 2 > t y y 9 @ O u u k u z u 5 5 u u u k k u u u ",
"u k p u a m x u a u u u u u u a C w d c r p p g z m Z > > i C m r m t a r r r c > g u u p C w P u a m a x z i k k p u u u u a a ",
"u u u 8 u x k u n z k u u k x b 9 c w v r r l e a > v w c z r > a C a u a w u p u w c a r p v p & z x u z z a m m x k a a k x x ",
"k u u u k x k a x k a u u k x m p l p p l p l p p p p p p p p p c p p l l e p c p p p p p p p p k a u u u u k z u a k z z z a u ",
"z a u l z m z z z z k a k z z z p p p l p l p p v l l p l p l l v c p l c p p v p p l p l l l l k k u a a z z z u k a z x a k u ",
"x z k z m m m z p a k z z k z a p c p p p l p l l v v l l l l l C v p v v l l v l c c l l v l v k z x x x z x z u a k x z z a u ",
"z a u k x m x k u u z x x x p p p p p p l p l p l p c l l l p p v l l l l p l v l l p p l l l l u a z b m z k a p k z z z k k p ",
"a u u u k z z u u u a x b z a u p y p p p p p p p p e p p p r p g p p p p p p p p p r p p p u u u u p k z k u u u a a x x z a u ",
"u u 5 u a z a u u a k k k z k p p p p p p p y p p p p e r r r r p p r p p r p p e r r p r t u u u u u a l a a u u a z z z k a p ",
"k u u u a z k u k a u u u a k z p p g p y p p p p y p p y p p y c p r p p y p a y r y p p y i i a a l u u k k z u k k z z z a u ",
"k k u u z v v z z k u u u p z c p p p p y p y p p p p y p p p a m a p g p p p g a p p p p p a a x x k a l z m m p k a x z k k u "
};
