/* XPM */
static char *_576468b2ae149cdb31f98b1a4481027Y6oFuWd7SXG3FfWj[] = {
/* columns rows colors chars-per-pixel */
"64 64 256 2 ",
"   c #040201",
".  c #0A0300",
"X  c #070706",
"o  c #160301",
"O  c #161619",
"+  c #0C0E12",
"@  c #28160B",
"#  c #2C2319",
"$  c #171927",
"%  c #221F26",
"&  c #351C20",
"*  c #1C2534",
"=  c #28272A",
"-  c #282937",
";  c #34312E",
":  c #1A361D",
">  c #491210",
",  c #693A09",
"<  c #453932",
"1  c #6D392D",
"2  c #502A19",
"3  c #36433A",
"4  c #574E18",
"5  c #764E16",
"6  c #454439",
"7  c #524A2E",
"8  c #665937",
"9  c #6E5130",
"0  c #776930",
"q  c #726C1E",
"w  c #11304B",
"e  c #2C344A",
"r  c #433D47",
"t  c #364856",
"y  c #34494E",
"u  c #374E68",
"i  c #395768",
"p  c #3A5977",
"a  c #2D4A68",
"s  c #3C667C",
"d  c #3C616E",
"f  c #4E5151",
"g  c #6F5748",
"h  c #57645D",
"j  c #6C6456",
"k  c #746A51",
"l  c #46596A",
"z  c #445C77",
"x  c #585A63",
"c  c #46656A",
"v  c #47667B",
"b  c #556875",
"n  c #4C727C",
"m  c #566D6F",
"M  c #766B68",
"N  c #697278",
"B  c #767677",
"V  c #6F6D6D",
"C  c #685B66",
"Z  c #8B6837",
"A  c #936A31",
"S  c #AD7933",
"D  c #895925",
"F  c #876948",
"G  c #907453",
"H  c #AB7946",
"J  c #8B7B71",
"K  c #845D60",
"L  c #6F8262",
"P  c #A58912",
"I  c #B88638",
"U  c #A8963B",
"Y  c #9B8F2C",
"T  c #CA943A",
"R  c #D1AD32",
"E  c #DBB22B",
"W  c #FDDE03",
"Q  c #F8DC05",
"!  c #FADE17",
"~  c #EBD015",
"^  c #FFE501",
"/  c #FFEB00",
"(  c #FDE30B",
")  c #FAE609",
"_  c #FFF201",
"`  c #FDE313",
"'  c #FCE31C",
"]  c #FAE719",
"[  c #D9C830",
"{  c #EED526",
"}  c #F8DD26",
"|  c #EFD836",
" . c #FDE324",
".. c #F8E426",
"X. c #F7E435",
"o. c #EEE238",
"O. c #958752",
"+. c #BA8645",
"@. c #B79558",
"#. c #AF8D50",
"$. c #B4AC58",
"%. c #999578",
"&. c #928C6B",
"*. c #B99867",
"=. c #AB9271",
"-. c #B4A775",
";. c #C89646",
":. c #C8954E",
">. c #D7A749",
",. c #CBA859",
"<. c #D8A958",
"1. c #CBB659",
"2. c #DAB659",
"3. c #D2B24B",
"4. c #F5BA47",
"5. c #E3B858",
"6. c #E8B14E",
"7. c #C79A70",
"8. c #C7A867",
"9. c #D4AA64",
"0. c #D4BC78",
"q. c #CDB271",
"w. c #E9BB66",
"e. c #DACA4F",
"r. c #F6C848",
"t. c #ECD747",
"y. c #F7DA48",
"u. c #F6CA59",
"i. c #FEDB5B",
"p. c #F8D657",
"a. c #EACD56",
"s. c #F5E348",
"d. c #FAE25A",
"f. c #ECE249",
"g. c #D8C479",
"h. c #D2CD6C",
"j. c #EAC76B",
"k. c #F5CE69",
"l. c #EAD566",
"z. c #FEDC63",
"x. c #FEDC6B",
"c. c #F7D766",
"v. c #EBCA79",
"b. c #EBD67A",
"n. c #FDDB73",
"m. c #F7DA79",
"M. c #F9CB74",
"N. c #FCE469",
"B. c #FAE678",
"V. c #F3EC76",
"C. c #395D84",
"Z. c #3D6588",
"A. c #3E6E94",
"S. c #425A83",
"D. c #446A8C",
"F. c #4B6C8B",
"G. c #476885",
"H. c #546C88",
"J. c #4C738C",
"K. c #48728A",
"L. c #53748C",
"P. c #567689",
"I. c #4B6D92",
"U. c #476A96",
"Y. c #4A7696",
"T. c #537493",
"R. c #5A7C9B",
"E. c #567896",
"W. c #526C96",
"Q. c #687A87",
"!. c #637B97",
"~. c #4B78A3",
"^. c #5778A4",
"/. c #627CA5",
"(. c #887A82",
"). c #5B8397",
"_. c #558197",
"`. c #66849B",
"'. c #748587",
"]. c #5C82A2",
"[. c #4D81A6",
"{. c #6689AB",
"}. c #8A8986",
"|. c #978987",
" X c #97968F",
".X c #A79A88",
"XX c #A69A95",
"oX c #B1968A",
"OX c #9BA690",
"+X c #B7A885",
"@X c #AAA899",
"#X c #B9A898",
"$X c #ADB192",
"%X c #AAA8A6",
"&X c #B5ABA9",
"*X c #B8B5A7",
"=X c #B9B7B7",
"-X c #AFB1B0",
";X c #A59CA3",
":X c #C7B99A",
">X c #CBB38B",
",X c #C7B8A8",
"<X c #D3BCA6",
"1X c #C6BCB9",
"2X c #D2B6B2",
"3X c #DFA991",
"4X c #D4CB8E",
"5X c #E4C886",
"6X c #E8D686",
"7X c #F4D987",
"8X c #E7D696",
"9X c #EBD098",
"0X c #F8E787",
"qX c #F7E694",
"wX c #EFEA8F",
"eX c #D8C4A7",
"rX c #C6C3B8",
"tX c #D7C9B8",
"yX c #DAD3B9",
"uX c #D1CBA7",
"iX c #E6D8B9",
"pX c #F0D9AB",
"aX c #F4EDB6",
"sX c #DFE4A1",
"dX c #BDB8C1",
"fX c #C7BDC5",
"gX c #BDC8C4",
"hX c #C8C8C9",
"jX c #D5CBCA",
"kX c #DAD3CB",
"lX c #D9D6D6",
"zX c #CFCED5",
"xX c #E5D8C9",
"cX c #E5DBD9",
"vX c #E9D2CC",
"bX c #F6E8C4",
"nX c #FCF7C7",
"mX c #E7E4DB",
"MX c #F8E9DD",
"NX c #FEF9DB",
"BX c #DDDBE2",
"VX c #E4DEE3",
"CX c #F4D9E0",
"ZX c #DDE1E4",
"AX c #EAE8E9",
"SX c #F6EBE9",
"DX c #F5F3EB",
"FX c #FDF4EC",
"GX c #FCF8E7",
"HX c #F4F3F3",
"JX c #FCF4F3",
"KX c #FEFBF4",
"LX c #FDFCFD",
"PX c #FAF6FA",
"IX c #F0EDF3",
"UX c #BFC2A7",
/* pixels */
"_ _ _ _ _ _ _ _ _ _ _ _ _ _ _ _ _ _ _ _ _ _ _ _ _ _ _ _ _ _ _ _ _ _ _ _ _ _ _ _ _ _ _ _ _ _ _ _ _ _ _ _ _ _ _ _ _ _ _ _ _ _ _ _ ",
"_ _ _ _ _ _ _ _ _ _ _ _ _ _ _ _ _ _ _ _ _ _ _ _ _ _ _ _ _ _ _ _ _ _ _ _ _ _ _ _ _ _ _ _ _ _ _ _ _ _ _ _ _ _ _ _ _ _ _ _ _ _ _ _ ",
"/ _ _ _ _ _ / _ _ _ _ _ / _ _ _ _ _ / _ _ _ _ / / _ _ _ _ _ / _ _ _ _ / / _ _ _ _ _ _ / _ _ _ _ / _ _ _ _ _ _ / _ _ _ _ / _ _ _ ",
"_ _ / _ / _ / / _ _ / / / _ _ _ / _ / / _ _ / _ _ _ _ _ / _ / / _ _ / _ _ _ _ _ / _ / / _ _ / / / _ _ _ / _ / / _ _ / / / _ _ _ ",
"/ / / / / / / / / / / / / / / / / / / / / / / / / / / / / / / / / / / / / / / / / / / / / / / / / / / / / / / / / / / / / / / / ",
"/ / / / / / / / / / / / / / / / / / / / / / / / / / / / / / / / / / / / / / / / / / / / / / / / / / / / / / / / / / / / / / / / ",
"/ ^ / / ^ / ^ / ^ / / / / / / / / / / / / / / ^ / ^ / / ^ / ^ / ^ / / / / / / / / / / / / / / ^ / / / ^ / / ^ / ^ / / / / / / / ",
"/ / / / / / / / / / / ^ / / / / ^ / / ^ / / / / / / / / / / / / / / / ^ / / ^ / / ^ / / ^ / / / / / / / / / / / / / / / ^ / / / ",
"^ / ^ ^ ^ / / ^ ^ ^ ^ ^ / / ^ ^ ^ / ^ ^ ^ / / ^ ^ / / ^ ^ / / ^ ^ / ^ / ^ ^ / / ^ ^ / ^ ^ ^ / / / ^ ^ ^ / ^ ^ ^ ^ ^ / ^ / / ^ ^ ",
"^ ^ / / ^ ^ ^ ^ / ^ / ^ ^ ^ ^ / / ^ ^ / ^ ^ ^ / ^ ^ ^ / / ^ ^ ^ ^ ^ ^ ^ / ^ ^ ^ ^ / / ^ / ^ ^ ^ ^ ^ / / ^ ^ / ^ / ^ ^ ^ ^ ^ ^ / ",
"^ / ^ ^ ^ / ^ ^ ^ ^ ^ / ^ / ^ ^ ^ ^ ^ ^ ^ / ^ ^ ^ / ^ ^ ^ ^ ^ ^ ^ ^ ^ / ^ ^ ^ ^ ^ ^ ^ ^ ^ ^ ^ ^ ^ ^ / ^ ^ ^ ^ ^ ^ ^ ^ / ^ / ^ ^ ",
"^ ^ ^ ^ ^ ^ ^ ^ ^ ^ ^ ^ ^ ^ ^ ^ ^ ^ ^ ^ ^ ^ ^ ^ ^ ^ ^ ^ ^ ^ ^ ^ ^ ^ ^ ^ ^ ^ ^ ^ ^ ^ ^ ^ ^ ^ ^ ^ ^ ^ ^ ^ ^ ^ ^ ^ ^ ^ ^ ^ ^ ^ ^ ^ ",
"^ ^ ^ ^ ^ ^ ^ ^ ^ ^ ^ ^ ^ ^ ^ ^ ^ ^ ^ ^ ^ ^ ^ ^ ^ ^ ^ ^ ^ ^ ^ ^ ^ ^ ^ ^ ^ ^ ^ ^ ^ / ^ ^ ^ ^ ^ ^ ^ ^ ^ ^ ^ ^ ^ ^ ^ ^ ^ ^ ^ ^ ^ ^ ",
"^ ^ ^ ^ ^ ^ ^ ^ ^ ^ ^ ^ ^ ^ ^ ^ ^ ^ ^ ^ ^ W ^ ^ ^ ^ ^ ^ ^ ^ ^ ^ ^ ^ ^ ^ ^ ^ ^ ^ ^ ^ ^ ^ ^ ^ ^ ^ ^ ^ ^ ^ ^ ^ ^ ^ ^ ^ ^ ^ ^ ^ ^ ^ ",
"^ ^ ^ ^ ^ ^ ^ ^ ^ ^ ^ ^ ^ ^ ^ ^ ^ ^ ^ ^ ^ ^ ^ ^ ^ ^ ^ ^ ^ ^ ^ ^ ^ ^ ^ ^ ^ ^ ^ ^ ^ ^ ^ ^ ^ ^ ^ ^ ^ ^ ^ ^ ^ ^ ^ ^ ^ W ^ ^ ^ ^ ^ ^ ",
"^ ^ ^ ^ ^ W ^ ^ ^ W ^ ^ ^ ^ ^ ^ ^ ^ W ^ ^ ^ ^ ^ ^ ^ ^ ^ ^ W ^ ^ ^ ^ ^ ^ ^ W ^ ^ ^ ^ ^ ^ W ^ ^ ^ ^ ^ ^ ^ ^ ^ ^ ^ ^ ^ ^ ^ ^ ^ ^ ^ ",
"^ ^ ^ ^ ^ Q ^ ^ ^ ^ ^ ^ ^ ^ ^ ^ W ^ W ^ ( ) ^ ^ ^ ^ ^ ^ ( ` ( ^ ^ ^ ^ ( ( ( ^ W ^ ^ ^ ^ ^ ^ ^ ) ^ ^ ) ^ ^ ) / ^ ^ ^ ^ ^ ^ ^ ^ ^ ",
"^ ^ ^ ^ ^ ^ W ^ ( ^ ^ ^ / ^ ^ W ^ ^ ^ ^ ^ ^ ^ ^ ^ ^ W ( ( ( ` ] ( ( ( ( ( ( ( ^ ^ ( ^ W Q ) ) ^ ^ ^ ^ ) ) ^ ^ ^ ^ ^ W ^ ^ ^ ^ ^ ",
"^ ) ^ ^ W ^ ^ ^ ^ ^ ^ ^ ^ ^ ^ ^ W ^ ^ ^ ) ^ ) ) ( ( ( ^ W ^ W Q ( ` ( ( ( ( ^ W ( W ^ ^ ^ ^ ^ ^ ^ ^ ^ ) / ^ ^ ^ ^ ^ ^ ^ ^ ^ ^ ^ ",
"^ ^ ^ ^ ^ ^ ^ ^ ^ ^ ^ ^ ^ ^ ^ ^ ^ W W ^ ( ] ] .. . . .!  . . . .X.} } } '  . . .'  .' ( W ^ ^ ^ ^ ^ ^ ^ ^ ^ ^ ^ ^ ^ ^ ^ ^ ^ ) ^ ",
"^ ^ ^ ^ ^ ^ ^ ^ ^ ^ ^ ^ ^ ^ ^ W ^ ( ( ( ] ] { o.y.t.p.i.d.p.y.y.i.z.i.y.y.y.t.t.y.| |  .` / ^ / ^ ^ ^ ^ ^ ^ ^ ( ( ^ ^ ^ ^ ^ ^ ^ ",
"^ ^ ^ ^ ^ ^ ^ ^ ^ ^ ( ( ^ ^ ^ ^ ( ` ..| s.d.V.V.0X0XqX7X7X0XB.B.n.n.7XB.m.7X0X0X0X0Xl.p.f.{ ` ) ^ ^ ^ ^ ^ ^ ( ^ ^ ^ ^ ^ ) W ^ ( ",
"^ ^ ^ ^ ^ ^ ^ ^ ^ ^ ^ ( W ^ ^ ^ ] ..s.V.qXaXnXNXNXGXNXbXpX6XV.V.N.V.qXpXbXbXnXnXbXnXbXeX0.l.f...) ) ^ ^ ^ ^ ( ( ( ^ ^ ) ^ ^ W ^ ",
"^ W ^ ^ Q ) ) ^ ^ ^ ^ Q ^ ^ ) ` ] f.V.aXKXJXkX=X-X&XjXFXMXuX4XwXwX0XaXNXKXAXhX@X@X%XfXcXiX-.e.s...( ^ ^ ^ ^ ( ( ^ ^ ^ ^ ^ ( ^ W ",
"W ^ ^ W ` ( ^ ^ ^ ) ^ Q ^ ) ) ..f.V.nXGXjXB ; x h 3 ; B zXDXuX$XsXaXNXDX1XN e j h y 3 B rXiX-.h.s.' Q ^ ^ W ( ( ^ ) ^ ^ ^ ^ ^ ^ ",
"W W ^ ^ ( ( ^ ^ ^ ^ ^ ^ ^ ) ] o.b.nXNX*Xr N -XhXkXlXhX;XC 1XGXrXyXGXMX&Xf B =XhXgXlXhX}.m *XyX>Xe.X...) ^ ^ ( W W ^ / ^ ) ^ ^ W ",
"( W W ( ( Q ) ^ ^ ^ ^ ^ / ) X.l.aXKXjXf }.lXAXHXKXDXHXLXlX}.eXmXNXmXrXx  XlXPXIXLXHXHXDXjX%.1XeX1.p.X.` ( ^ ( ( ^ ^ ^ / ( ^ ^ ^ ",
"( W ^ ( ! ` ^ ^ ^ ^ ^ ^ ) ] s.b.NXCXJ M jXLXKXJXJXLXJXJXGXcX&XkXmXZX&.Q.VXLXLXLXHXDXPXDXDXhX&XjX4Xe.| ..` ( Q ^ ^ ^ ^ ^ Q Q ^ ^ ",
"Q ( ^ Q ! ` ^ W ^ ) W ^ ) o.l.8XNXxX< =XHXPXPXPXJXcXrXmXKXDXlXlXVX=XC fXPXCX2XvXGXFXFXHXPXIX=X1XyX$.e.o.` Q W ^ ^ W ^ Q ( ( ^ W ",
"^ ( ^ Q ` ` W W Q W W ( ) o.h.pXNX*Xj AXLXHXPXLXkXj j k kXKXlXjXAX1XJ SXCXg g 8 tXGXFXHXPXVXcXrXxX-.e.o.] ( Q W W ^ ) ( ` ` ^ W ",
"^ ^ Q Q ' ! Q ^ Q ! ( ( ] f.-.yXGX*X}.ZXIXLXHXFX&.&.7 g .XGXAXlXlX;X%XFXoXK K 2 J GXSXJXAXJXzXjXlX$XY f...( Q ^ ^ ^ ( ( ! ! ( ^ ",
"' ! ~ ~ ..{ ~ ! ! ! ` ( ..[ =.rXSX=X XIXLXIXLXGX%.k 8 %.@XFXmXlXBX=X#XGXoX9 0 F J FXFXJXKXcXcXhXBX*Xq e...` Q ^ W ! ! ! { { }  .",
"s.y.| d.i.i.z.y.{ ! ) ) ] [ -.dXZXzX}.AXIXLXDXKXuX8 %.=.vXDXAXlXBXdX;XPXvX9 Z H eXJXPXIXDXmXkXvXzX@X0 h...) ) ) ..{ [ P P P 5 R ",
"l.0Xv.v.g.g.>Xj.z.s.{ ~ X.P O.rXUXmX%XlXLXHXHXGXNXyXuXxXFXmXcXZXzXzXdXVXMXiX9XeXMXFXJXPXAXlXvXjXfX|.0 U X.^ Q ` ~ R E 3.1.1.U 3.",
"4X4XtXxXrXtXrX:X0.M.a.e.o.R 1.-.@XjXzX=XZXDXDXDXDXGXFXGXmXAXlXUX%XhXgXzXJXFXSXSXFXLXIXZXAXAXlXfX:X&.*.R { )  . .E | a.l.B.B.p.a.",
"iXxXfXJ N }. XUX+X*.5Xj.t.d.0X6X>X@XtXmXzXmXDXDXSXAXSXcXmXmXrX@X@X@XhXhXlXSXAXJXAXAXAXAXZXzX1X,X+X*.5XB.X.] | | s.f.a.V.B.l.d.d.",
"mX.Xg  X%X;X&.L @X%.>X6Xv.N.m.b.b.4X-.2XcXvXcXmXAXAXAXAXcX=X%X.Xg @X*X*XhXlXZXIXIXcXBXZXhX=X*X+X*.9.9.m.t.t.B.0Xm.l.V.V.b.V.V.f.",
"%XB cXSXKXKXGXUX%.|.=.4X7Xm.B.c.l.b.>X>X,X1XkXkXmXlXlXfX;X*X.X7 o 1 =.#X$X*XzXzXlXzXzX=X-X#X+X=.@.:.0.v.0XqXaXpXsX6XwX6XwXwXwXwX",
"J cXJXSX2XyXGXSX1X|.|.:X7Xn.n.x.z.u.w.7.:X2X&X&X=X%X&X1X#XG , , D , 5 @.>X*X-X-X&X&X2X2X#X=.H :.:.@.8.8XaX&.k #XyXyX4X4XnXNXaXaX",
"=XSXSXoXk 9 #XKXCXXXM =.8.n.B.x.i.N.k.1.=.=.XX&X&X:X>XJ Z 5 D S S :.I D F &.@X&X,X#XoX(.G H +.:.@.7.,.8XG   V AXJXvXyXiXkXOX@XUX",
"rXKXvXK g 2 2 JXHX%XM J 4 6Xn.N.N.N.c.l.1.U A Z D A 5 D D S T T w.w.k.w.:.A D D D D Z A H H :.+.:.:.2.>XG B hXLXPXCXCX1Xo X fXAX",
"=XPXAX> @ 2 J SXAX-XJ %.4 qXB.N.V.N.N.p.a.3.>.I S S I I S R 6.w.k.x.u.k.w.<.;.S S H H +.S :.;.S +.:.<.0.:XLXLXPXLXPXjXC o M SXLX",
"%XAXHXjX(.oXCXLXlXXX$X$X#.0Xx.B.z.N.N.z.u.u.5.3.>.R >.R 4.k.u.i.N.i.N.n.M.w.<.@.H D A I S I S ;.;.;.,.5X#XPXLXLXPXIXfX}.kXFXLXJX",
" XdXHXKXJXKXKXmX=X#X:X-.4XqX0Xm.x.z.i.z.x.z.z.u.a.a.3.$.>.2.j.j.e.l.2.<.,.@.#.#.F 5 H T S T T T ;.+.@.>X%XAXLXPXHXlXgX}.LXGXFXLX",
"&XJ @XyXSXvXeX@X@XuX0.6X4X%.UX4X0XN.N.d.x.x.c.x.N.x.,.@.>X<X<X<X+XO.#X<XeX=.>X:X=.#.9.>.6.;.;.,.@.O.G M %XdXBXmXjX%.&XXXkXKXFXDX",
"<X<XoXoXoX%.-.:X,Xq.,.v..XB '.%.-.b.V.N.z.x.k.x.i.N.m.#.g |.%X XM ; J |.|.j k k 2 q.n.w.6.5.w.*.k f f f |.,X#X-.O.0 -.>X,XMXFXFX",
"8.-.:X,X2XvX<X>X,.,.M.v.%.'.).'.'.OXh.V.N.N.n.n.i.N.B.h.o .       #     X .   X $.V.p.p.u.j.7.G f u b x j 8Xm.u.5.w.w.9.>X2XeXoX",
"b.j.*.-.7.*.*.#.<.u.u.j.q.$X}.m `.'.&.$.h.j.m.x.i.d.p.B.6X4 X   . .   . . . 0 -.V.c.l.2.,.q.J f l l x M O.b.N.r.c.c.u.k.3X>X-.@.",
"i.B.c.a.6.T 6.4.4.4.4.5.n.7Xg.%.'.N 6 @ o Z b.x.d.d.d.N.V.V.1.$.Y Y Y U @.h.m.x.p.B.$.o   + < h x M &.@.<.M.7X7X7Xm.k.k.v.M.5.5.",
"p.a.u.p.r.4.r.4.4.4.r.z.x.x.N.V.OX= + # 6 X *.6Xb.6Xm.m.wXwXwXqXsXwXsXsX0X0XB.B.b.g.7 @ e X O f J O.:.;.<.5.@.eX4X5X9Xw.7Xv.m.B.",
"i.r.p.r.4.| r.r.u.r.p.z.N.c.c.0X%.. 6 . # O f %.OXOXOX$X$X$X@XOX%X$X%X$XOXOXOX%..X%.; @ O < # < #.:.:.T u.l.q X 7 g k g &.&.%.%.",
"x.i.p.i.z.p.y.p.u.x.a.z.N.p.N.wX&.  f &   O O + y n n P.n P.P.b n s n v v d i y y e % X ; 6 + < #.6.T 6.a.N.$.X # o o o o       ",
"<.M.c.c.k.x.n.l.b.h.l.B.N.r.N.6Xj + - ; O $ % - a P.).)._.`.{.R._._.).Y.D.F.G.d i t - & # ; $ % G 9.T 6.p.a.h.q o 1 1 > > > > g ",
"9 q.4Xh.q.7.$.O.O.4 #.B.d.r.N.O.+ e % % % - % w i K.K.P.J.K.I.G.s s I.Z.C.Z.Z.J.P.u * - O O - ; @ 7.T 6.i.p.wXwX-.7.3X7.3X3X2XpX",
"% y h h b l t u d : $.V.y.r.l.0   t % $ X - e * p H.H.E.J.J._.L.L.v T.E.I.D.Z.D.F.z e - O * - ; o H <.>.p.l.h.4XiXyXpX8XpXaXiX<X",
"w p _.K.U.^.U.C.A.y h.N.p.i.B.O.o = O $ $ * * e z W.F.!.).).J.i P.l H.W.E.K.Z.K.Z.z u w $ O = & @ 7.w.4.r.l.-.3 L &.&.&.&.k M f ",
"w d P.P.T.v G.Y.A.y 4XV.d.i.n.9.2 o 1 r $ e t a Z.E.U.^.`.R.w P.Q.l e T.E.K.D.Y.s p C.a e e > o F q.6.6.5.b.$Xh m c l t l b c c ",
"a P._._.i v a K.A.d sXV.N.c.<.@.A G &.g w p p s Y.I.U./.).d !.P.+ Q.l L.R.E.D.Z.A.p Z.p e C J G Z S :.<.w.v.UXN P.J.W.T.T.T.K.n ",
"K.).].K.v i i i _.h 4XwX5X9.I D +.0.q.k e U.S.Y.~.~.U.^.{.P.w P.H.v e T./.U.W.E.I.G.U.D.l J =.@.H A H :.9.>X@XN c c i b n v n s ",
"{.{.Y.K.v d d i s c OX$X=.F 0 k G *..XB z W.^.~.[.~.^.^.R.`.i a L.w G.{.W.W.W./.^.W.D.D.l C J O.F F 9 F O.=.'.m b l i G.L.P.L.J.",
"{.{.].).z n i n L.G.u x C V f x N V Q.Q.A.A.[.Y.A.[.[.I.J.J.).s a I.T.I.W.p T.H.T.I.A.Y.C.z f < y y - N x m n P.G.s G.D.Y.~.I.G.",
"{.].].R.L.H.n P.F.T.F.G.z !.G.`.E.H.L.E.~.Y.[.Y.[.A.Y.T.K.J.s E.A.Y.I.G.W.!.T.F.Y.Y.A.Z.C.F.p z l v u E.H.G.s s G.G.Y.D.U.~.D.G.",
"{.].J.R.E.W.W.S.G.v H.F.d ).R.L.R.Y.J.`.[.Y.E.T.U.~.R.K.Y.R.I.F.Y.J.T.R.G.K.L.K.I.Y.F.S.v H.u S.l H.z H.W.G.D.G.v v n v Z.Z.G.z ",
"{.].R.R.W./.H.H.H.H.G.v d d ].].~.D.E.{.Y.E.W.U.Y.U.T.J.I.I.I.T.L.E.W.S.L.G.s Y.Z.C.W.E.H.!.z u S.H.Q.Q.z p S.S.z b c c C.p z u "
};
