/* XPM */
static char *_cd73af8b87f4404e3fc0c568fe36ce81rG9AtIMpvrunFxm[] = {
/* columns rows colors chars-per-pixel */
"64 64 157 2 ",
"   c #000000",
".  c #0B0000",
"X  c #0C0C0C",
"o  c #150000",
"O  c #1F0000",
"+  c #000012",
"@  c #141414",
"#  c #1C1817",
"$  c #1B1B1C",
"%  c #260000",
"&  c #290000",
"*  c #310000",
"=  c #3D0000",
"-  c #3D1800",
";  c #331A0C",
":  c #34251F",
">  c #001B27",
",  c #001C2C",
"<  c #001F31",
"1  c #00212E",
"2  c #002431",
"3  c #002F39",
"4  c #232323",
"5  c #2A2A2A",
"6  c #342520",
"7  c #382B27",
"8  c #333333",
"9  c #3C3C3C",
"0  c #490E00",
"q  c #441400",
"w  c #462307",
"e  c #513426",
"r  c #493F3C",
"t  c #58453D",
"y  c #003441",
"u  c #003946",
"i  c #00414E",
"p  c #004350",
"a  c #004E5B",
"s  c #00505D",
"d  c #005563",
"f  c #005D6C",
"g  c #006776",
"h  c #026D7C",
"j  c #424243",
"k  c #4C4C4C",
"l  c #5D4B45",
"z  c #525252",
"x  c #5D5D5C",
"c  c #614F48",
"v  c #61514A",
"b  c #6B5D57",
"n  c #6B5E5A",
"m  c #656565",
"M  c #6F6562",
"N  c #6B6B6B",
"B  c #726966",
"V  c #736C69",
"C  c #79716E",
"Z  c #727272",
"A  c #7D7573",
"S  c #777778",
"D  c #7D7C7C",
"F  c #827672",
"G  c #857975",
"H  c #827C7A",
"J  c #85807F",
"K  c #027687",
"L  c #0B7585",
"P  c #147B8C",
"I  c #197D8E",
"U  c #158293",
"Y  c #1A8394",
"T  c #1C8A9C",
"R  c #278091",
"E  c #1D90A3",
"W  c #2592A5",
"Q  c #2396AA",
"!  c #2398AC",
"~  c #259EB3",
"^  c #299DB2",
"/  c #27A4BA",
"(  c #28A3B9",
")  c #2BA9BF",
"_  c #13B5CD",
"`  c #18BBD4",
"'  c #19BED8",
"]  c #2BACC2",
"[  c #2BB0C7",
"{  c #2BB3CB",
"}  c #2BBBD3",
"|  c #26BED8",
" . c #01C3DE",
".. c #23C3DD",
"X. c #2CC3DC",
"o. c #00C5E0",
"O. c #00C9E5",
"+. c #01CDE9",
"@. c #0CCDE8",
"#. c #1DC7E1",
"$. c #15CAE5",
"%. c #1DC9E4",
"&. c #00D1ED",
"*. c #01D6F2",
"=. c #00D9F6",
"-. c #02DEFC",
";. c #25C7E1",
":. c #2BCBE5",
">. c #35CEE9",
",. c #28D1ED",
"<. c #33D0EA",
"1. c #26D7F3",
"2. c #25DCF9",
"3. c #00E1FF",
"4. c #0BE6FF",
"5. c #00E8FF",
"6. c #0BE9FF",
"7. c #15E5FF",
"8. c #1CE2FF",
"9. c #11E8FF",
"0. c #21E2FF",
"q. c #838282",
"w. c #8A8685",
"e. c #8C8887",
"r. c #8C8B8B",
"t. c #918F8E",
"y. c #949494",
"u. c #999796",
"i. c #9D9C9C",
"p. c #A09F9F",
"a. c #A3A3A3",
"s. c #A8A7A7",
"d. c #AAAAAA",
"f. c #B3B3B3",
"g. c #B5B7B8",
"h. c #BBBCBC",
"j. c #C0C0BF",
"k. c #BEBFC0",
"l. c #C4C4C4",
"z. c #C7C8C9",
"x. c #CBCCCC",
"c. c #CFD1D2",
"v. c #D4D4D4",
"b. c #D6D9D9",
"n. c #DBDCDC",
"m. c #E0DFDF",
"M. c #DEDFE0",
"N. c #DEE0E1",
"B. c #E5E5E5",
"V. c #E8E8E7",
"C. c #E6E8E9",
"Z. c #EBEBEB",
"A. c #EFEFF0",
"S. c #EFF0F0",
"D. c #F1F1F1",
"F. c #F2F2F2",
"G. c #F4F5F5",
/* pixels */
"                                        @   4 j.b.H     $ $                                                                     ",
"                                        X   4 y.n.F.x.Z     4 X                                                                 ",
"                                            @   O i.C.F.l.x     4 X                                                             ",
"                                            # j R   0 g.F.Z.d.$   @ 4                                                           ",
"                                            $ ; ' ,.I   n x.G.m.r.    4 X                                                       ",
"                                            $ 7 _ &.4.X.d   w.n.G.x.m     4 X                                                   ",
"                                            $ : _  .O.5.0.] 1 & a.V.Z.f.4   X 4                                                 ",
"                                            $ 6 _ O. .&.5.5.2.Q   e h.A.B.y.    4 @                                             ",
"                                            $ 6 _ O. . .*.3.3.5.,.K   B v.G.x.N     4 @                                         ",
"                                            $ : _ O. . . .-.3.3.5.8.} s   r.B.Z.h.8     4                                       ",
"                                            $ : _ O. .O. .O.-.3.-.3.5.8.)   * d.Z.C.u.    4 @                                   ",
"                                            $ 7 _ O. . .O. .O.3.3.3.-.3.5.1.E   t l.G.v.S     4 @                               ",
"                                            $ 6 _ O. . . .O.' +.3.3.3.3.-.5.4.:.K   C b.S.l.j     4     .                       ",
"                                            $ 6 _ O. . . . .O. .*.5.-.3.3.-.-.5.8.{ p   y.B.V.a.    $ $                         ",
"                                            $ 6 _ O. .O. .O. . . .=.3.-.-.3.3.-.5.5.2./   = f.Z.n.D     4 @                     ",
"                                            $ : _ O. . . .O. .O. .O.-.3.3.3.3.3.3.-.3.5.1.T   c z.S.z.z     4                   ",
"                                            $ 6 _ O. . . .O. . . . .O.3.3.3.3.3.3.3.-.-.3.9.:.g   J n.Z.s.    $ $               ",
"                                            $ 6 _ O. .O. . . .O. .O. .+.3.3.3.3.3.3.3.3.-.-.5.7.{ y . p.B.B.e.    4 @           ",
"                                            $ 6 _ O. .o. . . . .O. .O.' &.5.3.3.3.3.3.3.3.3.-.3.5.2.~   q h.Z.x.x     5 @       ",
"                                            $ 6 _ O. . .O. .O. .o. .o. . .=.3.3.3.3.3.3.3.3.3.-.-.5.6.,.U   n c.Z.f.$     4 X   ",
"                                            $ 7 _ O. . .O. .O. .o.O. . . .O.=.3.-.3.3.3.3.3.3.3.3.3.-.5.4.X.f   w.N.B.p.8     X ",
"                                            $ 6 _ O. .O. . . . .o. .o.o. . .O.3.3.3.3.3.3.3.3.3.3.3.3.-.3.5.0.[ , O s.V.B.s.5   ",
"                                            $ 6 _ O. .o. . . .O.o.o.o. . .O. .+.3.3.3.3.-.3.3.3.3.-.3.3.3.-.3.5.2.!   r l.n.N   ",
"                                            $ : _ O. . . .O. . .o. . .O. . .O. .&.3.3.3.3.3.3.3.3.3.3.3.3.3.3.-.3.5.>.< B z.m   ",
"                                            $ 6 _ O. . . .O. .O. .O.o. .O.o.o.o. .*.3.-.3.3.3.3.3.3.3.3.3.3.3.3.3.3.7.g G x.m   ",
"                                          $ 5 7 ` +.' O. .O. . . . .o.o. . .o.o.O. .=.5.3.3.3.3.3.3.3.3.3.3.3.-.3.3.8.f F x.m   ",
"                                      $ $       P | +.O. . . .O.o.o. . .o. .o.o. . .O.-.3.-.3.3.3.3.-.3.3.3.3.3.-.3.8.f F x.m   ",
"                                  @ 4     N x.g.-   Q ;.O. . . .o.o.O. .o.o.o.o. . . .O.3.3.3.3.-.3.3.3.3.3.3.3.3.3.8.f F x.m   ",
"                                4     k g.V.V.Z.n.y.o i ] $.O. . .o.o.o.o.o.o.o. .O. . .&.3.3.3.3.3.3.3.3.3.3.3.-.3.8.f F x.m   ",
"                          . $ @   . a.n.Z.n.v.n.B.A.v.A   g } @.O. . . .o.o.o.o. .O. .O. .*.3.-.3.3.3.3.3.3.3.3.3.5.8.f F c.m   ",
"                        $ 4     w.b.Z.B.v.v.v.v.v.n.V.Z.k.l   Y | +.O. .o.o.o. . . . . . . .=.3.-.3.3.3.3.-.3.3.3.3.8.f F x.m   ",
"                    . 5     N z.S.C.b.v.v.v.v.v.v.v.v.n.Z.C.s.= + ^ #.O. . .o.o. .O. .O. . .O.-.3.-.3.3.3.3.3.3.3.3.8.f F x.m   ",
"                X 4     j f.V.Z.n.v.v.v.v.v.v.v.v.v.v.v.v.B.A.n.t.  a ] $.O. . . . .O.O. . . .O.-.3.3.3.3.3.3.3.-.3.8.f F x.m   ",
"              4 @     p.m.A.m.v.c.v.v.v.v.v.v.v.v.v.v.v.v.c.b.V.A.x.V   h } @.O. . . . . .O. . .+.3.3.3.3.3.3.3.3.3.8.f F x.m   ",
"          X 4     q.v.A.B.v.c.v.v.v.v.v.v.v.v.v.v.v.v.v.v.v.c.v.n.Z.V.h.t   T X.+.O. . . .O. . . .+.3.3.3.3.3.3.3.3.8.f F c.m   ",
"      @ 4     m l.Z.V.v.c.v.v.v.v.v.v.v.v.v.v.v.v.v.v.v.v.v.v.v.v.v.m.A.B.a.* 2 ^ %.O.O. . . .O.O. .=.5.-.3.3.3.-.3.8.f F x.m   ",
"    4     9 f.C.A.B.B.M.v.v.v.v.v.v.v.v.v.v.v.v.v.v.v.v.v.v.v.v.b.v.v.v.B.Z.n.w.  d [ $.O. . . . .o. .=.3.3.3.3.3.3.8.f F x.m   ",
"$ $     i.n.Z.V.B.B.B.C.B.M.v.v.v.v.v.v.v.v.v.v.v.v.v.v.v.v.v.v.v.v.v.v.c.b.V.Z.z.M   L } O.O. .o.o. .O.-.3.3.3.3.3.8.f F x.m   ",
"    q.v.Z.Z.B.B.B.V.B.V.B.V.B.b.v.c.v.v.v.v.v.v.v.v.v.v.v.v.v.v.v.v.v.v.v.v.v.n.V.V.f.e   W ..+. . .O. .+.3.3.3.3.3.8.f F x.m   ",
"x l.V.V.B.B.B.B.V.B.B.B.V.B.V.V.m.m.v.v.v.v.v.v.v.v.v.v.v.v.v.v.v.v.v.v.v.v.v.v.v.B.Z.B.p.& y ( %.O. . . .&.3.3.3.3.8.f F c.m   ",
"n.Z.B.B.B.B.B.V.B.B.C.B.B.B.B.V.V.V.m.v.v.v.v.v.v.v.v.v.v.v.v.v.v.v.v.v.v.v.v.v.v.v.v.B.A.b.H   f { +.O. . .*.3.3.3.8.f F x.m   ",
"v.B.N.B.B.B.B.B.V.B.B.V.B.C.V.B.V.B.V.B.m.v.v.v.v.v.v.v.v.v.v.v.v.v.v.v.v.v.v.v.v.v.v.v.b.V.A.l.b   I | +. . .=.3.3.8.f F x.m   ",
"9 s.n.B.B.B.V.B.V.B.B.V.B.B.V.V.B.B.B.B.B.B.v.v.v.v.v.v.v.v.v.v.v.v.v.v.v.v.v.v.v.v.v.v.v.v.n.Z.V.f.w   W ;.O.O.=.5.2.f F x.m   ",
"    m h.n.B.B.V.B.C.B.B.V.B.B.B.B.V.B.V.B.B.V.B.b.v.v.v.v.v.v.v.v.v.v.v.v.v.v.v.v.v.v.v.v.v.v.v.m.A.M.u.% u ) $.+.3.8.f F c.m   ",
"@ 4     q.z.B.B.B.B.B.B.V.B.V.B.B.B.V.V.V.V.m.V.V.m.v.v.v.v.v.v.v.v.v.v.v.v.v.v.v.v.v.v.v.v.v.v.v.b.B.A.c.D   g [ *.8.f F x.m   ",
"    $ X   $ u.v.B.m.B.V.B.V.B.B.V.B.V.V.B.v.v.v.m.V.V.n.v.v.v.v.v.v.v.v.v.v.v.v.v.v.v.v.v.v.v.v.v.v.c.n.Z.Z.l.v   I <.g F x.m   ",
"      X 4     k f.n.B.m.V.V.B.V.B.B.B.v.v.v.v.v.v.b.m.V.B.b.v.v.v.v.v.b.v.v.v.v.v.v.v.v.v.v.v.v.v.v.v.v.v.n.Z.B.d.q > 3 q.x.m   ",
"          X 4     Z k.B.m.B.B.V.B.V.m.v.v.b.v.v.v.v.v.n.B.V.m.b.v.v.v.v.v.v.v.v.v.v.v.v.v.v.v.v.v.v.v.v.v.v.v.B.S.n.y.  S x.m   ",
"              $ $     t.c.B.N.B.B.B.B.B.n.v.v.v.v.v.v.v.v.n.V.B.n.v.v.v.v.v.v.v.v.v.v.v.v.v.v.v.v.v.v.v.v.v.v.v.b.B.A.z.p.z.V   ",
"                  4     8 a.v.B.B.B.B.B.V.B.b.v.v.v.v.v.b.m.B.B.V.B.n.v.v.v.v.v.v.v.v.v.v.v.v.v.v.v.v.v.v.v.v.v.n.B.V.n.c.l.x   ",
"                    . 4     x g.n.B.B.B.B.V.V.B.n.v.v.n.B.V.B.B.B.V.V.m.b.v.v.v.v.v.v.v.v.v.v.v.v.v.v.v.v.v.v.B.V.n.x.l.s.m   X ",
"                        X 4     D z.N.B.B.B.B.V.B.n.B.V.B.B.V.B.B.B.V.V.V.m.b.v.v.v.v.v.v.v.v.v.v.v.v.v.v.B.V.B.v.l.f.S     .   ",
"                            $ #     y.v.B.B.B.B.B.B.V.B.B.V.B.V.V.V.B.B.B.V.B.n.v.v.v.v.v.v.v.v.v.v.v.m.V.B.v.z.h.e.$     $     ",
"                                4     j s.b.B.B.V.B.B.B.C.B.B.V.B.B.B.V.B.V.V.V.B.n.v.v.v.v.v.v.v.n.B.V.n.x.k.u.9     $ X       ",
"                                  . 4     N h.B.B.B.B.B.B.V.B.B.V.B.B.V.B.B.B.B.V.V.B.v.v.v.v.n.B.V.m.x.l.a.x     4 .           ",
"                                      $ $     w.z.B.m.B.V.B.B.C.B.C.B.B.C.B.V.B.C.B.V.B.m.b.m.V.m.v.l.f.V     # @               ",
"                                          $ @   4 a.v.B.m.B.B.B.B.V.B.B.V.C.B.B.V.B.B.B.V.V.V.v.z.g.q.    @ @                   ",
"                                              4     z f.n.B.B.B.C.B.V.B.B.B.C.B.B.B.V.V.C.n.x.h.y.9     $                       ",
"                                                @ 4     S l.B.n.B.C.V.B.B.B.B.B.B.B.V.m.v.l.p.z     $ @                         ",
"                                                    @ $     y.x.m.m.B.C.V.C.B.B.V.B.v.z.s.N     $ X                             ",
"                                                        4     9 s.n.B.m.B.B.B.B.n.z.g.D     @ @                                 ",
"                                                          X 4     x h.M.B.B.m.c.h.r.5     $ .                                   ",
"                                                              @ 4     q.x.m.l.u.k     $ X                                       ",
"                                                                  $ @   4 u.N     $ X                                           "
};
