/* XPM */
static char *_d420e7ae2a048c0ca0f7a762ccaf861EOUSpIKFHjzNt9pc[] = {
/* columns rows colors chars-per-pixel */
"64 64 7 1 ",
"  c black",
". c #323030",
"X c #00C5E0",
"o c #00E1FF",
"O c gray76",
"+ c #D7D7D7",
"@ c #E6E6E6",
/* pixels */
"                                                                ",
"                                                                ",
"                                                                ",
"                                                                ",
"                                                                ",
"                                                                ",
"                                                                ",
"                                                                ",
"                                                                ",
"                                                                ",
"                                                                ",
"                                                                ",
"                                                                ",
"                                                                ",
"                                                                ",
"                                                                ",
"                                                                ",
"                                                                ",
"                                                                ",
"                                                                ",
"                                                                ",
"                                                                ",
"                                                                ",
"                                                                ",
"                                                                ",
"                                                                ",
"                                                                ",
"                                                                ",
"                                                                ",
"                                                                ",
"                                                                ",
"                                                                ",
"                           ...                                  ",
"                           ....                                 ",
"                           .Xo...                               ",
"                           .XXoo...                             ",
"                           .XXXoo...                            ",
"                           .XXXoooo...                          ",
"                           .XXXXooooo...                        ",
"                           .XXXXXoooooo..                       ",
"                           .XXXXXXoooooo...                     ",
"                           .XXXXXXXooooooo...                   ",
"                           .XXXXXXXooooooooo...                 ",
"                           .XXXXXXXXoooooooooo.                 ",
"                           .XXXXXXXXXooooooooo.                 ",
"                           ..XXXXXXXXXoooooooo.                 ",
"                         .+O...XXXXXXXXooooooo.                 ",
"                       ..O++++...XXXXXXooooooo.                 ",
"                      .++++++O+@..oXXXXXoooooo.                 ",
"                    ..+++++++++++...XXXXXooooo.                 ",
"                  ..@@@++O+O+O+++++...XXXXoooo.                 ",
"                ..@@@@@@@+O++O++O++++...XXXooo.                 ",
"                .@@@@@@@@@+++++OO++++O@..XXXoo.                 ",
"                 .+@@@@@@@@@+++O++++++++...Xoo.                 ",
"                  .++@@@@@O+@@+++++++++O++...o.                 ",
"                   ..+@@@+++++@+++++++++++++...                 ",
"                    ...+@@@++++@@++++++O++++@@.                 ",
"                      ..++@@@@@@@@@+++++O+O@OO.                 ",
"                       ...+@@@@@@@@@@+O++@OO..                  ",
"                        ....+@@@@@@@@@O@+O..                    ",
"                           ...+@@@@@@@@O...                     ",
"                             ..++@@@@O..                        ",
"                              ...+@OO..                         ",
"                                ......                          "
};
