/* XPM */
static char *a67d3f0ea81843c9e22c98fd2ae59002lFzc7j4E2X5z45p8[] = {
/* columns rows colors chars-per-pixel */
"64 64 8 1 ",
"  c black",
". c #323030",
"X c #00C5E0",
"o c #00E1FF",
"O c gray76",
"+ c #D7D7D7",
"@ c #E6E6E6",
"# c #FEFEFE",
/* pixels */
"                                                                ",
"                                                                ",
"                                                                ",
"                                                                ",
"                                                                ",
"                                                                ",
"                                                                ",
"                                                                ",
"                                                                ",
"                                                                ",
"                                                                ",
"                                                                ",
"                                                                ",
"                                                                ",
"                                                                ",
"                                                                ",
"                                                                ",
"                                                                ",
"                                                                ",
"                                                                ",
"                                                                ",
"                                                                ",
"                                                                ",
"                                                                ",
"                                                                ",
"                                                                ",
"                                                                ",
"                                                                ",
"                                                                ",
"                                                                ",
"                                                                ",
"                                                                ",
"                           .@@                                  ",
"                           ...@                                 ",
"                           .Xo.#@                               ",
"                           .XXoo.@@                             ",
"                           .XXXoo..@                            ",
"                           .XXXoooo..@                          ",
"                           .XXXXooooo.@@                        ",
"                           .XXXXXoooooo.@                       ",
"                           .XXXXXXoooooo..@                     ",
"                           .XXXXXXXooooooo..@                   ",
"                           .XXXXXXXooooooooo.@@                 ",
"                           .XXXXXXXXooooooooooO                 ",
"                           .XXXXXXXXXoooooooooO                 ",
"                           @.XXXXXXXXXooooooooO                 ",
"                         @+O@#.XXXXXXXXoooooooO                 ",
"                       @@O++++@..XXXXXXoooooooO                 ",
"                      @++++++O+@@.oXXXXXooooooO                 ",
"                    @++++++++++++@#.XXXXXoooooO                 ",
"                  @@@@@++O+O+O+++++@..XXXXooooO                 ",
"                @@@@@@@@@+O++O++O++++@..XXXoooO                 ",
"                +@@@@@@@@@+++++OO++++O@@.XXXooO                 ",
"                  +@@@@@@@@@+++O++++++++@#.XooO                 ",
"                   ++@@@@@O+@@+++++++++O++@..oO                 ",
"                     +@@@+++++@+++++++++++++@.O                 ",
"                       +@@@++++@@++++++O++++@@O                 ",
"                        ++@@@@@@@@@+++++O+O@OO                  ",
"                          +@@@@@@@@@@+O++@OO                    ",
"                            +@@@@@@@@@O@+O                      ",
"                              +@@@@@@@@O                        ",
"                               ++@@@@O                          ",
"                                 +@OO                           ",
"                                                                "
};
