/* XPM */
static char *_f36d1f4f6194c4eec24ad50c51a3793EKhJ5zoEme8UWMYC[] = {
/* columns rows colors chars-per-pixel */
"64 64 234 2 ",
"   c #13160C",
".  c #2E1B00",
"X  c #19241C",
"o  c #392D03",
"O  c #2B352E",
"+  c #36463C",
"@  c #6F4E08",
"#  c #5B5C3C",
"$  c #3E4B42",
"%  c #46554C",
"&  c #4F5B52",
"*  c #4F5551",
"=  c #53584A",
"-  c #58645C",
";  c #4A6254",
":  c #696C56",
">  c #797456",
",  c #5B7165",
"<  c #676B68",
"1  c #617167",
"2  c #64746A",
"3  c #6B726C",
"4  c #68776A",
"5  c #767867",
"6  c #6B7B72",
"7  c #747C76",
"8  c #845F11",
"9  c #8A680D",
"0  c #956900",
"q  c #856818",
"w  c #956B15",
"e  c #907116",
"r  c #A3780B",
"t  c #91762D",
"y  c #A67F23",
"u  c #897A4C",
"i  c #8F7C54",
"p  c #857460",
"a  c #7E826D",
"s  c #6B8577",
"d  c #7A837D",
"f  c #738A7D",
"g  c #768375",
"h  c #B38911",
"j  c #968239",
"k  c #A9872A",
"l  c #B99227",
"z  c #B19037",
"x  c #C7981A",
"c  c #C99815",
"v  c #D8A61A",
"b  c #EBB203",
"n  c #E6B00F",
"m  c #ECB30B",
"M  c #E3AD1C",
"N  c #E5AD11",
"B  c #E7B112",
"V  c #EBB517",
"C  c #F3B91B",
"Z  c #C89B27",
"A  c #CC9F2A",
"S  c #DCAA2A",
"D  c #CBA434",
"F  c #DCB235",
"G  c #D6AA32",
"H  c #E6B625",
"J  c #E7B628",
"K  c #E7B937",
"L  c #9B8145",
"P  c #92835A",
"I  c #A78E48",
"U  c #A89458",
"Y  c #B79D53",
"T  c #868365",
"R  c #8B9978",
"E  c #959979",
"W  c #93896D",
"Q  c #A9976E",
"!  c #D5B353",
"~  c #C2AA60",
"^  c #7D8B83",
"/  c #738D80",
"(  c #799486",
")  c #878D87",
"_  c #84938A",
"`  c #839C8E",
"'  c #889889",
"]  c #93988A",
"[  c #8D9691",
"{  c #8B9C94",
"}  c #879D91",
"|  c #929692",
" . c #939B95",
".. c #949E9A",
"X. c #999E9A",
"o. c #999A92",
"O. c #9CA68A",
"+. c #8BA497",
"@. c #8AA799",
"#. c #93A49B",
"$. c #9BA39E",
"%. c #97A897",
"&. c #8AA388",
"*. c #A4A988",
"=. c #A7AC9A",
"-. c #BABC98",
";. c #ADB190",
":. c #9DA5A1",
">. c #9BABA4",
",. c #96ABA2",
"<. c #94B3A4",
"1. c #9CB3A7",
"2. c #9EB4A9",
"3. c #9CBAAB",
"4. c #96BBA9",
"5. c #8FAFA0",
"6. c #A2ABA5",
"7. c #A6ACA6",
"8. c #A3B4AB",
"9. c #ACB4AD",
"0. c #A3BAAC",
"q. c #ABB7A3",
"w. c #B8B7A9",
"e. c #ACB6B1",
"r. c #A5B8B0",
"t. c #ACBBB4",
"y. c #ABBAB5",
"u. c #B3BCB5",
"i. c #B5BDB9",
"p. c #B9BEBB",
"a. c #CAB894",
"s. c #C6B588",
"d. c #CFBFA5",
"f. c #9DC2B1",
"g. c #BCC3A9",
"h. c #A3C2B3",
"j. c #ACC4BA",
"k. c #ABC6B8",
"l. c #B3C4BB",
"z. c #BCC2BD",
"x. c #B6C8BA",
"c. c #ABCCB6",
"v. c #D4CA9B",
"b. c #D8C9A6",
"n. c #C9CBB3",
"m. c #D5CEB8",
"M. c #D2D6B9",
"N. c #D1D4AB",
"B. c #E8D9BA",
"V. c #DDE1AF",
"C. c #F4EFBE",
"Z. c #B6CAC1",
"A. c #BCCBC3",
"S. c #B9C9C3",
"D. c #B4D3C4",
"F. c #BBD2C6",
"G. c #BDD4CA",
"H. c #BCDACB",
"J. c #C1C5C1",
"K. c #C3CBC5",
"L. c #CBCDCA",
"P. c #C5CEC9",
"I. c #C4D5C7",
"U. c #C4D4CC",
"Y. c #C3D9CE",
"T. c #CCD7CB",
"R. c #D1D2CF",
"E. c #D7DBC2",
"W. c #C5DCD2",
"Q. c #CBDDD4",
"!. c #CCDDD7",
"~. c #D4D6D2",
"^. c #DCDDD9",
"/. c #D4DCD7",
"(. c #ECDFCC",
"). c #C5E2D4",
"_. c #CBE1D6",
"`. c #CEE3DA",
"'. c #CDE8DD",
"]. c #C7E1D8",
"[. c #D2E5DD",
"{. c #DEE1DD",
"}. c #D3E8DE",
"|. c #D8E7D9",
" X c #EEE1C4",
".X c #F2EBCE",
"XX c #FEFCCC",
"oX c #F8F6C8",
"OX c #E1E1DF",
"+X c #EAE8D2",
"@X c #F2ECDA",
"#X c #FCF4D2",
"$X c #FEFED5",
"%X c #FEFEDA",
"&X c #F7F7D5",
"*X c #EDF1CD",
"=X c #D5E7E1",
"-X c #D5E9E1",
";X c #D5EAE1",
":X c #DAEBE3",
">X c #DFF0E8",
",X c #CFE9E0",
"<X c #E4E5E2",
"1X c #E4E9E5",
"2X c #EBE9E6",
"3X c #ECEBE9",
"4X c #EEEAE9",
"5X c #EDECEA",
"6X c #EEEDEB",
"7X c #EFEEEC",
"8X c #EEEEEC",
"9X c #EFEDEE",
"0X c #EFEEEC",
"qX c #E0EFE8",
"wX c #F1EDEC",
"eX c #F0EFED",
"rX c #F2EEED",
"tX c #F1EEEC",
"yX c #F1ECE3",
"uX c #E2F1EA",
"iX c #EFF1ED",
"pX c #E1F1E5",
"aX c #F5F1E5",
"sX c #FEF7E5",
"dX c #F1F0EE",
"fX c #F2F1EE",
"gX c #FBF9E9",
"hX c #F1EFF0",
"jX c #F5F5F2",
"kX c #F5F4F2",
"lX c #F9F6F4",
"zX c #FBF9F6",
"xX c #FCFBF9",
"cX c #F6F8F5",
/* pixels */
"7X7X7X7X7X7XwX7X7X7X7X7XwX7X7X7XwXwX7X7X7X7XwXwXwX7X7X7X7X7X3X7X3X7X7X7XwXwXwX7XwXwX7X7X7X7X7X7X7X7XwXwX7X7X7X7X7X7X8X8X7X7X7X7X",
"7X7X7X7X7X7XwX7X7X7X7X7X7X7X7X7XwXwX7X7X7X7XwXhX7X3X3X5X7X3X7XkX7X7XwX3X3XwX7XwXwX7X7XhX7X7X7XhX7XwXwXwX7X7X7X7X7X7X8X8X7X7X7X7X",
"7X7X7X7X7X7X7X7X7X7X7X7X7X7X7X7X7X7X7X7XwXwX5X3XhXlXcXcXkXkX9X9X8XwXkXlXkXkX7X3X3X5XwX5X7X7X7X9X7X7X7X7X7X7X7X7X7X7X7X8X7X7X7X7X",
"7X7X7X7X7X7X7X7X7X7X5X7X7X7X7X7X7X7X7X7X3X7XkXcX7X^.L.J.i.i.p.J.S.J.J.L.~.<X5XcXcX7X5X5X7X7X9X9X7X7X7X7X7X7X7X7X7X7X7X8X7X7X7X7X",
"7X7X7X7XwXwX7X7X7X7X7X7X7X7X8X8XwX7X7X7XkXhX^.p.9.e.y.A.U.Y.W.G.W.!.U.G.z.e.e.p.~.9XcX7XwX5XhX5X7X7X7X7X7X7X7X7X7X7X7X7X7X7X8X8X",
"7X7X7X7XwXwX7X7X7X7X7X7X7X7X7XiX5XwXkXhXL.:.>.G.Q.[.=X[.[.=X`.3.H.-X[.[.[.[./.L.e.7.K.3XkX7X5X9X7X7X7X7X7X7X7X7X7X7X7X7X7X7X8X8X",
"7X7X7X7X7X7XwXwX7X7XwX7X7X7XiX3XhXlX~...:.!.!.3.`.`.`.`._.`._.'.`.,X`.`.`.`.,X[.=X=XS.e.R.9XkX9XiX7XwXwX7X7X7X7X7X7XwXwX7X7X8X7X",
"7X7X7X7X7X7XwXwX7X7X7X7X7X7X5XiXhXe.[ U.:X=X].W.'.r.Z.'.`.`._.,XG.<.W.=X`.`.`.[.!.,X`.G.i.u.2XhX3X7XwXwX7X7XwX7X7X7X5X7X7X7X7X7X",
"7X7X7X7X7X7X7X7X7X7X7X7X7X3XkX3X$.>.`.=X_._.`.=X`.G.W.`.`.`.`.=XW.Z.!.'.`.`.,X].].-Xj.<.:XU.6.:XkX3X7X7X7X7X5X7X7X7X7X7X7X7X7X7X",
"7X7X7X7X7X7X7X7X7X7X7X7X7X7XiXX.e.>Xl.G.=X_.`.!.`.=X=X`.[.[.`.!.,X-X,X'.`._.=Xy.D.,X`.'.`.-X!.:.<XcX3XwX7X7X7X7X7X7X7X7X7X7X7X7X",
"7X7X7X7X7X7X7X7X7X7X7X7X7XkX9.e.>X`.`.`.`.`.`.,X`._.`.`.!.[.`.`.`.!.!.!.=X[.`.!.].`.`.`.`.W.].U.:.3XwX3X7X7X7X7X7X7X7X7X7X7X7X7X",
"7X7X7X7X7X7X7X7X7X7X7X7XcXL...:X`.`.`.`.`.`.,X`.`.`.`.`.`.`.`.`.`.`.`.`.F.A._.=X`.`.`.`.,XG.+.,Xi.i.cX5X7X7X7X7X7X7X7X7X7X7X7X7X",
"7X7X7X7X7X7X7X7X7X7X7XwX3X .U.=X!.`.`.`.`.`.`.`.`.`.`.`.[.`.`.`.`.`.[.Z.l.l.>.Z.,X`.`.`.`.`.[.[.[.:.^.kX3X7X7X7X7X7X7X7X7X7X7X7X",
"7X7X7X7X7X7X7X7X7X7X5XkX~.[ :X_.`.`.`.`.[.`.`.`.`.`.`.`.`.`.`.`.`.=XW.S.S.U.=XZ.W.`.`.[.`.`.`._.:Xu.i.kX7X7X7X7X7X7X7X7X7X7X7X7X",
"7X7X7X7X7X7X7X7X7X7X7XkX7.e.:X!.`.`.`.`.`.`.`.`.`.`.`.`.`.`.`.`.`.Z.r.i.t.#.6.-X[.`.`.`.`.[.`.!.-XF.| 5X7X5X7X7X7X7X7X7XwXwX7X7X",
"7X7X7X7X7X7X7X7X7X7XwXhX .U.=X`.`.[.`.`.`.`.`.[.`.`.`.`.`.`.`.[.!.G.[.=X-X:Xr.t.=X_.`.`.`.`.`.`.=XG.7 ^.kX5X7X7X7X7X7X7X7X7X7X7X",
"7X7X7X7XwXwX7X7X7X7X7X5X) T.=X_._.`.[.`.`.`.`.`.`.`.`.`.`.`.`.`.`.`.=X`._.[.}.t._.'.`.`._.`.`.`.`.D.6 U.jX5XiX7X7X7X7X7X7X7X7XwX",
"7X7X7X7XwXwX7X7X7X7X7X1X7 Q.=X`.`.`.`.`.`.!.`.-X=X=X=X=X=X=X[.`.`.=X[.W.`.[.[.!.`.`.`.`.'._.`.`.).Z.4 A.jX5X7X7X7X7X7X7X7X7X7XwX",
"7X7X7X7X7X7X7X7X7X7X7X7X7 S.=X!.`.`.`.`.[.Z.>.[ ..,.>.r.r.Z.S.!.-XG.>...{ e.[.[.`.`.`.`._.[.`.'.W.h.4 A.cX5X7X7X7X7X7X7X7X7X7X7X",
"7X7X7X7X7X7X7X7X7X7X7XkX6.$.1X!.`.`.`.`.[.[.!._ l.y.y.Z.#.^ !.[.S.#.U.=X!.>.,.[.`.[._.[.`.`._.'.c.3.1 ~.jX5X5X7X7X7X7X7X7X7X7X7X",
"7X7X7X7X7X7XwXwX7X7X3XkX~.7 /.[.`.`.`.`.Q.-Xr.P.uX:X:X-X:X,.Y._.,.[.:X[.[.>X>.r.}._.`.`.`._.}.).f.<.3 <XdX5XwXwX7X7X7X7X7X7X7X7X",
"7X7X7X7X7X7X7X7X7X7X7X7XkX:.:.1X!.`.`.Q.[.U.>.=XQ.Q._.Q.=XA.{ t.A.=XQ.`._.[.[._ Q.[.`.`._.'._.f.h.s 6.kX5X5X7XwX7X7X7X7X7X7X7X7X",
"7X7X7X7X7X7X7X7X7X7X7X7XhX3X3 e.uX`.[.Q.>Xt.y.-X[.[.[.[.-X_.2 _ [.Q.[.`.}._.}.+.j.}.`.`.}.).h.h.5.- <XkX5X7XiXiX7X7X7X7X7X7X7X7X",
"7X7X7X7X7X7X7X7X7X7X7XwX3XkXOX- 9.:X-X_.-X#.u.:XT.x.l.l.U.Y.7 ' :X[.!.Y.T.W.[.#.,.>X`.].D.4.h.0.$ K.cX3XtXwX5XwX7X7X7X7X7X7X7X7X",
"7X7X7X7XwX7X7X7X7X7X7X7XwX3XcX<X< 7 U.uX~.d n.x.q.q.w.u.x.=.' I.~.|.L.w.e.Z.W.<.s @.D.4.4.h.+.O p.zX5X7X7XwX7X7X7X7X7X7X7X7X7X7X",
"7X7X7X7XwX7X7X7X7X7X7X7X7XwX3XkX5X .O 7 Q.7.a E E E 5 : E R : a O.] ] =.=.=.O.} f ( f.h.4.2 % K.zX3XwXwX7X7X7X7X7X7X7X7X7X7X7X7X",
"7X7X7X7X7X7X7X7X5X7X7X7X7X7XwX3XhXlX~.< 3 7.n.$XoX#XW . C.C.T > *X.Xp   N.N.N.E ' c.#.1 + _ OXzX3X7X5XwX7X7XwXwX7X7X7X7X7X7X7X7X",
"7X7X7X7X7X7X7X7X7X7X7X7X7X7XwXwXwXwXlXxX7.5 w.$XXXXXB.b.XXC.# = oX%Xa.W oXXXoX~ &.+ % | R.fXjX2X7X7X7X7X7X7X5X7X7X7X7X7X7X7X7X7X",
"7X7X7X7X7X7X7X7X7X7X7X7X7X7XwX7XwX5X2XcXR.) ] .X$XoX$X$XXX*.q.a g.%X&XXXoXXXV.R 5 l.1XjXkX7X5X9X7X7X7X7X7X7X7X7X7X7X8X8X7X7X7X7X",
"7X7X7X7X7X7X7X7X7X7X7X7X5X7X5X7X7XhX5XkXOX) e.O.%X%X%X%Xq.g.pX|.=.+X%X%XXX&X*.R d kXdXwX5X7X9X7X7X7X7X7X7X7X3XiX7X7X8X8X7X7X7X7X",
"7X7X7X7X7X7X7X7X7X7X7XwX7X7X7X7X7X7X5X7XkX| J.u.] E.*Xn.O.|._.}.I.%.E.oX*X*.&.5.7 kX7X7X7X7X7X7X7XwX7X7X7X7X7X7X7X7X7X7X7X7X7X7X",
"7X7X7X7X7X7X7X7X7X7X7XwX7X7X7X7X5X7XwX3XzX7.9.1Xx.o.=.: K.-X`._.:X%.s ;.a R c.&.d kX7X9X7X7X7X7XwXwX7X7X7X7X7X7X7X7X7X7X7X7X7X7X",
"7X7X7X7X7X7X7X7X7X7X7X7X7X7X7X7X7X7XwX4XzXJ.$.[.[.pXT.#.`.[.[._.'.F.{ I.I.).c.&.^ hX3XwXwX7X7X7X7X7X7X7X7X7X7X7X7X7X7X7X7X7X7X7X",
"7X7X7X7X7X7X7X7X7X7X7X7X7X5X7X7X7X9X7X5XkX~.[ =XQ.:X8.2.}.`.`.`.`.).} G.:X'.D.` d kX5XwX7X7X7XhX7X7X7X7X7X7X7X7X7X7X7X7X7X7X7X7X",
"7X7X7X7X7X7X7X7X7X7X7X7X7X7X7X7X7X5X9X9XxX^.^ ~.Q.[.^ A.|.`.[._.[.[.1.+.}._.H.@.7 9X4X5X7X7X7X7X7X7X7X7X7X7X7X7X7X7X7X7X7X7X7X7X",
"7X7X7X7X7X7X7X7X7X7X7X7X5X7X7X7X7X5XhX5Xn.7 6 [ S.Y.d [.[.`.`.`.`.`.k.f Y.}.D.5.^ hXhX4X7X7X7X7X7X7X7X7X7X7X7X7X7X7X7X7X7X7X7X7X",
"7X7X7X7X7X7X7X7X7X7X7X7X7X7X7X7X5XkXL.)  .A.[.}.qXy.} =X`.`.`.`.`.}.D.f l.}.#.( - ~.hXxXdX5XtXtX7X7X7X7X7X7X7X7X7X7X7X7X7X7X7X7X",
"7X7X7X7X7X7X7X7X7X7X7X7X7X7XwX7XkXp.../.uX:X-X[.{.} 8.:X`.`._.`.`.'.H.( #.>X[.W.e.X.X.S.dXdX5XdX7X7X7X7X7X7X7X7X7X7X7X7X7X7X7X7X",
"7X7X7X7X7X7X7X7X7X7X7X7X7X7X3XkX^.) 1X!.F.F.h.2.,.1 l.:X_.`.`.`.`.'.H.@., 8.j.Q.:X:XU.) | 3XdX5X7X7X7X7X7X7X7X7X7X7X7X7X7X7X7X7X",
"7X7X7X7X7X7X7X7X7X7X7XiX7X7X3XcXJ. .uX2.f #.#.8.r.6 Z.-X`.`.`.`._.}.H.@.6 1.} ^ { 8.8.uXX.9.jX5X7X7X7X7X7X7X7X7X7X7X7X7X7X7X7X7X",
"7X7X7X7X7X7X7X7X7X7X7X7X7X7X7XkXOX< :XQ.1.k.2.' * X A.-X`.`.`.`.`.}.D.@.;  .0.h.f.5.6 H.t.[ fXdX7X7X7X7X7X7X7X7X7X7X7X7X7X7X7X7X",
"7X7X7X7X7X7X7X7X7X7X7X7X7X7X7X3XlXo.7 u.f - % 3 9.) e.-X`.`.`.`._.'.c.+.% * X % / <.1.j.1 t.jX5X7X7X7X7X7X7X7X7X7X7X7X7X7X7X7X7X",
"7X7X7X7X7X7X7X7X7X7X7X7X7X7X7X7X9X3X| 3 $.z.^.7XxX~.[ -X`.`.`.`.'.H.0.2 {.7XL.:.-   4 6 3 <X9X7X7X7X7X7X7X7X7X7X7X7X7X7X7X7X7X7X",
"7X7X7X7X7X7X7X7X7X7X7X7X7XwX7X7X9XhXlXhXcXzXjX3X3XwX .z.:X`.`.`.).x./ #.cXwXcXzXwXR.$.| ^.kX7X7X7X7X7X7X7X7X7X7X7X7X7X7X7X7X7X7X",
"7X7X7X7X7X7X7X7X7X7X7X7X7XiXwX7X7X3X5X7X5X3X3X3X5XjX{.3 z.-X_.H.k.} O ^.kX3X3X3XwXzXcXlXkX5X7XwX7X7X7X7X7X7X7X7X7X7X7X7X7X7X7X7X",
"7X7X7X7X7X7X7X7X7X7X7X7X7X7X7X7X7X7X7X7X7X7XhX7XiX3XjX^.2 2 ( ` , ; 3 3X9X5X7X7X3X4X3X5X5X5X7X7X7X7X7X7X7X7X7X7X7X7X7X7X7X7X7X7X",
"7X7X7X7X7X7X7X7X7X7X7X7X7X7X7X7X7X7XdX7X9X7XwX7X7XdX3XkX2Xu.d + ( 3.^ 1XhX7X7X7XwXwXwX5XhX7X7X7X7X7X7X7X7X7X7X7X7X7X7X7X7X7X7X7X",
"7X7X7X7X7X7X7X7X7X7X7X7X7X7X7X7X7X7X7X7X7X7X7X7X7X5XwXwXwXxX7X) 3.h.) 3X9X7X7X7XwXwXwX7XwX7X7X7X7X7X7X7X7X7X7X7X7X7X7X7X7X7X7X7X",
"7X7X7X7X7X7X7X7X7X7X7X7X7X7X7X7X7X7X7X7X7X7X7XhX7X7X7X9X3XwX1X .D.0.[ dX7X7XwXhXdX5XdX5X5XdXtXdX7X7X7X7X7X7X7X7X7X7X7X7X7X7X7X7X",
"7X7X7X7X7X7X7X7X7X7X7X7X7X7X7X7X7X7X7X7X7X7X7X7X7X7X9X9X3XkX2X$.`.j. .hX5X7X7X5X5XtX5XiX5X5X5X5X7X7X7X7X7X7X7X7X7X7X7X7X7X7X7X7X",
"7X7X7X7X7X7X7X7X7X7X7X7X7X7X7X7X7X7X9X7X7X7X9X9X7X7X7X7XwXhX<XX.).0.6.cX5XwX5XwXdX5XaX5XdXtXdXtX7X7X7X7X7X7X7X7X7X7X7X7X7X7X7X7X",
"7X7X7X7X7X7X7X7X7X7X7X7X7X7X7X7X5X7X9X7X7X7X9X9XhX7X7X7X3XkXwX=.Y.0.=.sXtX3XwXwX5XtX3XdX5XtX5XtX7X7X7X7X7X7X7X7X7X7X7X7X7X7X7X7X",
"7X7X7X7X7X7X7X7X7X7X7X7X7X7X7X7X7X7X7XiXdX3X3XtX7X5XdXaXiX@Xs.T T.q.P Q E.lX4XwXtXtXtX5XtX5XtX5X7X7XwXwXwXwXwXwX7X7X7X7X7X7X7X7X",
"7X7X7X7X7X7X7X7X7X7X7X7X7X7X7X7X7X7X7X7XtXtXdXdXhX5X3X4X@X*.U U M.q.> z Q yX4X4XtXtXiX5XtXtX5XdX7X7XwX7XwXwXwXwX7X7X7X7X7X7X7X7X",
"7X7X7X7X7X7X7X7X7X7X8X8X7X7X7X7X5X7X5XdX5XtXwX4X3X9XkXzX XU ~ j V.*.9 l U (.zXkXtX3X5XtXwXwXwXwX7X7X7X7X7X7X7X7X7X7X7X7X7X7X7X7X",
"7X7X7X7X7X7X7X7X7X7X8X7X7X7X7X7X7X7XaX5XtX5X4XwXsX#XB.a.I z ! k -.W e l q Q v. X#XsXaX3X4XwX4XwX7X7X7X7X7X7X7X7X7X7X7X7X7X7X7X7X",
"7X7X7X7X7X7X7X7X7X7X7X7X7X7X7X7XwX7X5XiX5XdXsX Xv.Y z l A h D e P L h 9 x D l l ~ v..XrXwXwXwXwXiX7X7X7X7X7XwXwX7X7X7X7X9X9X7X7X",
"7X7X7X7X7X7X7X7X7X7X7X7X7X7X7X7X5XtX7XtXgX.Xs.U l D F J J v r l @ z F v n H H F G z Y s..XlXrXwX5XwX5X7X7X7X7X5X7X7X7X7X9XiX7X7X",
"7X7X7XwX7X7X7X7X7X7X7X7X7X3X3X7XrXjXdX@Xm.U D S H H J M n m n V x v H m b n B H J J S D U n.+XwXjXkXdX5X5X5XwXwX7X7X7X7X7X7X7X7X",
"7X7X7XwX7X7X7X7X8X7X7X3X8XkXkXkX<XL.6.] > I F V B v v h m b b m V m b b b b h Z M N m J u W ] :.K.OXwXcXkX5XwXwX7X7X7X7X7X7X7X7X",
"7X7X7X7X7X7X7X7X7XwX3XwXcX<XL.9...>.l.|.m.Y F S v A y h V b b b m m b b m M 0 k A S M ! U M._.l.6.:.9.K.<XjXkX3XiX7X7X7X7X7X7X7X",
"7X7X7X7XwX5X7X7XhX3XkX2Xu.9.u.S.!.=X!.l.p o t y e 8 @ y M b b b b b b b m v 9 @ @ w l y o a q.G.!.Y.S.t.6.9.<XdX5X7X7X7X7X7X7X7X",
"7X7X7X7X9XhX7X7X7XwX<X..F.].W.Y.y.` 2 - X.d.W i Q b.b.t H m b b b b b b C A L M.d.Q u i w.' & & f 4.Z.D.Y.l. .<XkX3XwX7X9XiX9X9X",
"7X7X7X7X9X5X7X7X4XcXR.R _.h.4./ / 8.G.:XhXcXrXhXhXzX Xi F m b b b b b b C x P @XzXhX4XyXlXtX{.K.1.s f <.h.l.) <XkX3X7X9X9X9X9X9X"
};
